<svg data-v-423bf9ae="" xmlns="http://www.w3.org/2000/svg" viewBox="0 0 371 107" class="iconLeftSlogan"><!----><!----><!----><g data-v-423bf9ae="" id="a4c5e0b5-8d71-4e84-bca2-f7062126121c" fill="#000000" transform="matrix(5.952380997433594,0,0,5.952380997433594,109.67302696757125,-18.75000118641627)"><path d="M3.44 13.23L3.44 13.23Q2.53 13.23 1.91 12.92L1.91 12.92L1.91 12.92Q1.29 12.61 0.97 12.22L0.97 12.22L0.97 12.22Q0.66 11.83 0.66 11.59L0.66 11.59L0.66 11.59Q0.66 11.47 0.76 11.39L0.76 11.39L0.76 11.39Q0.85 11.31 0.97 11.31L0.97 11.31L1.18 11.31L1.18 11.31Q1.27 11.31 1.34 11.35L1.34 11.35L1.34 11.35Q1.40 11.38 1.48 11.49L1.48 11.49L1.48 11.49Q1.79 11.93 2.23 12.17L2.23 12.17L2.23 12.17Q2.67 12.42 3.44 12.42L3.44 12.42L3.44 12.42Q4.31 12.42 4.84 12.09L4.84 12.09L4.84 12.09Q5.38 11.76 5.38 11.14L5.38 11.14L5.38 11.14Q5.38 10.77 5.16 10.53L5.16 10.53L5.16 10.53Q4.94 10.29 4.46 10.12L4.46 10.12L4.46 10.12Q3.98 9.94 3.02 9.72L3.02 9.72L3.02 9.72Q1.78 9.44 1.32 8.95L1.32 8.95L1.32 8.95Q0.87 8.46 0.87 7.70L0.87 7.70L0.87 7.70Q0.87 7.18 1.16 6.72L1.16 6.72L1.16 6.72Q1.44 6.26 2.01 5.96L2.01 5.96L2.01 5.96Q2.58 5.67 3.37 5.67L3.37 5.67L3.37 5.67Q4.21 5.67 4.79 5.96L4.79 5.96L4.79 5.96Q5.38 6.24 5.66 6.62L5.66 6.62L5.66 6.62Q5.95 7 5.95 7.24L5.95 7.24L5.95 7.24Q5.95 7.36 5.86 7.44L5.86 7.44L5.86 7.44Q5.77 7.52 5.64 7.52L5.64 7.52L5.43 7.52L5.43 7.52Q5.24 7.52 5.12 7.34L5.12 7.34L5.12 7.34Q4.84 6.92 4.49 6.70L4.49 6.70L4.49 6.70Q4.13 6.48 3.37 6.48L3.37 6.48L3.37 6.48Q2.56 6.48 2.14 6.82L2.14 6.82L2.14 6.82Q1.72 7.15 1.72 7.70L1.72 7.70L1.72 7.70Q1.72 8.04 1.89 8.26L1.89 8.26L1.89 8.26Q2.06 8.48 2.52 8.67L2.52 8.67L2.52 8.67Q2.98 8.86 3.86 9.06L3.86 9.06L3.86 9.06Q5.17 9.35 5.70 9.84L5.70 9.84L5.70 9.84Q6.23 10.33 6.23 11.14L6.23 11.14L6.23 11.14Q6.23 11.72 5.91 12.19L5.91 12.19L5.91 12.19Q5.59 12.67 4.96 12.95L4.96 12.95L4.96 12.95Q4.33 13.23 3.44 13.23L3.44 13.23ZM10.78 13.23L10.78 13.23Q9.32 13.23 8.53 12.38L8.53 12.38L8.53 12.38Q7.73 11.54 7.69 10.01L7.69 10.01L7.67 9.45L7.69 8.89L7.69 8.89Q7.73 7.36 8.53 6.52L8.53 6.52L8.53 6.52Q9.32 5.67 10.78 5.67L10.78 5.67L10.78 5.67Q11.70 5.67 12.36 6.00L12.36 6.00L12.36 6.00Q13.01 6.33 13.33 6.84L13.33 6.84L13.33 6.84Q13.65 7.35 13.68 7.90L13.68 7.90L13.68 7.90Q13.69 8.02 13.59 8.11L13.59 8.11L13.59 8.11Q13.50 8.20 13.37 8.20L13.37 8.20L13.17 8.20L13.17 8.20Q13.03 8.20 12.97 8.14L12.97 8.14L12.97 8.14Q12.91 8.08 12.84 7.91L12.84 7.91L12.84 7.91Q12.56 7.14 12.05 6.81L12.05 6.81L12.05 6.81Q11.55 6.48 10.78 6.48L10.78 6.48L10.78 6.48Q9.77 6.48 9.18 7.09L9.18 7.09L9.18 7.09Q8.58 7.70 8.54 8.96L8.54 8.96L8.53 9.45L8.54 9.94L8.54 9.94Q8.58 11.20 9.18 11.81L9.18 11.81L9.18 11.81Q9.77 12.42 10.78 12.42L10.78 12.42L10.78 12.42Q11.55 12.42 12.05 12.09L12.05 12.09L12.05 12.09Q12.56 11.76 12.84 10.99L12.84 10.99L12.84 10.99Q12.91 10.82 12.97 10.76L12.97 10.76L12.97 10.76Q13.03 10.70 13.17 10.70L13.17 10.70L13.37 10.70L13.37 10.70Q13.50 10.70 13.59 10.79L13.59 10.79L13.59 10.79Q13.69 10.88 13.68 11.00L13.68 11.00L13.68 11.00Q13.65 11.55 13.33 12.06L13.33 12.06L13.33 12.06Q13.01 12.57 12.36 12.90L12.36 12.90L12.36 12.90Q11.70 13.23 10.78 13.23L10.78 13.23ZM15.68 4.31L15.68 4.31Q15.54 4.31 15.46 4.23L15.46 4.23L15.46 4.23Q15.37 4.14 15.37 4.00L15.37 4.00L15.37 3.47L15.37 3.47Q15.37 3.33 15.46 3.24L15.46 3.24L15.46 3.24Q15.54 3.15 15.68 3.15L15.68 3.15L16.21 3.15L16.21 3.15Q16.35 3.15 16.44 3.24L16.44 3.24L16.44 3.24Q16.53 3.33 16.53 3.47L16.53 3.47L16.53 4.00L16.53 4.00Q16.53 4.14 16.44 4.23L16.44 4.23L16.44 4.23Q16.35 4.31 16.21 4.31L16.21 4.31L15.68 4.31ZM15.83 13.09L15.83 13.09Q15.69 13.09 15.61 13.01L15.61 13.01L15.61 13.01Q15.53 12.92 15.53 12.78L15.53 12.78L15.53 6.12L15.53 6.12Q15.53 5.98 15.61 5.89L15.61 5.89L15.61 5.89Q15.69 5.81 15.83 5.81L15.83 5.81L16.07 5.81L16.07 5.81Q16.21 5.81 16.30 5.89L16.30 5.89L16.30 5.89Q16.38 5.98 16.38 6.12L16.38 6.12L16.38 12.78L16.38 12.78Q16.38 12.92 16.30 13.01L16.30 13.01L16.30 13.01Q16.21 13.09 16.07 13.09L16.07 13.09L15.83 13.09ZM20.96 13.23L20.96 13.23Q20.05 13.23 19.43 12.92L19.43 12.92L19.43 12.92Q18.80 12.61 18.49 12.22L18.49 12.22L18.49 12.22Q18.17 11.83 18.17 11.59L18.17 11.59L18.17 11.59Q18.17 11.47 18.27 11.39L18.27 11.39L18.27 11.39Q18.37 11.31 18.48 11.31L18.48 11.31L18.69 11.31L18.69 11.31Q18.79 11.31 18.85 11.35L18.85 11.35L18.85 11.35Q18.91 11.38 19.00 11.49L19.00 11.49L19.00 11.49Q19.31 11.93 19.75 12.17L19.75 12.17L19.75 12.17Q20.19 12.42 20.96 12.42L20.96 12.42L20.96 12.42Q21.83 12.42 22.36 12.09L22.36 12.09L22.36 12.09Q22.89 11.76 22.89 11.14L22.89 11.14L22.89 11.14Q22.89 10.77 22.67 10.53L22.67 10.53L22.67 10.53Q22.46 10.29 21.97 10.12L21.97 10.12L21.97 10.12Q21.49 9.94 20.54 9.72L20.54 9.72L20.54 9.72Q19.29 9.44 18.84 8.95L18.84 8.95L18.84 8.95Q18.38 8.46 18.38 7.70L18.38 7.70L18.38 7.70Q18.38 7.18 18.67 6.72L18.67 6.72L18.67 6.72Q18.96 6.26 19.52 5.96L19.52 5.96L19.52 5.96Q20.09 5.67 20.89 5.67L20.89 5.67L20.89 5.67Q21.73 5.67 22.31 5.96L22.31 5.96L22.31 5.96Q22.89 6.24 23.18 6.62L23.18 6.62L23.18 6.62Q23.46 7 23.46 7.24L23.46 7.24L23.46 7.24Q23.46 7.36 23.37 7.44L23.37 7.44L23.37 7.44Q23.28 7.52 23.16 7.52L23.16 7.52L22.95 7.52L22.95 7.52Q22.75 7.52 22.64 7.34L22.64 7.34L22.64 7.34Q22.36 6.92 22.00 6.70L22.00 6.70L22.00 6.70Q21.64 6.48 20.89 6.48L20.89 6.48L20.89 6.48Q20.08 6.48 19.66 6.82L19.66 6.82L19.66 6.82Q19.24 7.15 19.24 7.70L19.24 7.70L19.24 7.70Q19.24 8.04 19.40 8.26L19.40 8.26L19.40 8.26Q19.57 8.48 20.03 8.67L20.03 8.67L20.03 8.67Q20.50 8.86 21.38 9.06L21.38 9.06L21.38 9.06Q22.68 9.35 23.21 9.84L23.21 9.84L23.21 9.84Q23.74 10.33 23.74 11.14L23.74 11.14L23.74 11.14Q23.74 11.72 23.42 12.19L23.42 12.19L23.42 12.19Q23.10 12.67 22.47 12.95L22.47 12.95L22.47 12.95Q21.84 13.23 20.96 13.23L20.96 13.23ZM27.85 13.23L27.85 13.23Q26.94 13.23 26.31 12.92L26.31 12.92L26.31 12.92Q25.69 12.61 25.38 12.22L25.38 12.22L25.38 12.22Q25.06 11.83 25.06 11.59L25.06 11.59L25.06 11.59Q25.06 11.47 25.16 11.39L25.16 11.39L25.16 11.39Q25.26 11.31 25.37 11.31L25.37 11.31L25.58 11.31L25.58 11.31Q25.68 11.31 25.74 11.35L25.74 11.35L25.74 11.35Q25.80 11.38 25.89 11.49L25.89 11.49L25.89 11.49Q26.19 11.93 26.64 12.17L26.64 12.17L26.64 12.17Q27.08 12.42 27.85 12.42L27.85 12.42L27.85 12.42Q28.71 12.42 29.25 12.09L29.25 12.09L29.25 12.09Q29.78 11.76 29.78 11.14L29.78 11.14L29.78 11.14Q29.78 10.77 29.56 10.53L29.56 10.53L29.56 10.53Q29.34 10.29 28.86 10.12L28.86 10.12L28.86 10.12Q28.38 9.94 27.43 9.72L27.43 9.72L27.43 9.72Q26.18 9.44 25.73 8.95L25.73 8.95L25.73 8.95Q25.27 8.46 25.27 7.70L25.27 7.70L25.27 7.70Q25.27 7.18 25.56 6.72L25.56 6.72L25.56 6.72Q25.84 6.26 26.41 5.96L26.41 5.96L26.41 5.96Q26.98 5.67 27.78 5.67L27.78 5.67L27.78 5.67Q28.62 5.67 29.20 5.96L29.20 5.96L29.20 5.96Q29.78 6.24 30.07 6.62L30.07 6.62L30.07 6.62Q30.35 7 30.35 7.24L30.35 7.24L30.35 7.24Q30.35 7.36 30.26 7.44L30.26 7.44L30.26 7.44Q30.17 7.52 30.04 7.52L30.04 7.52L29.83 7.52L29.83 7.52Q29.64 7.52 29.53 7.34L29.53 7.34L29.53 7.34Q29.25 6.92 28.89 6.70L28.89 6.70L28.89 6.70Q28.53 6.48 27.78 6.48L27.78 6.48L27.78 6.48Q26.96 6.48 26.54 6.82L26.54 6.82L26.54 6.82Q26.12 7.15 26.12 7.70L26.12 7.70L26.12 7.70Q26.12 8.04 26.29 8.26L26.29 8.26L26.29 8.26Q26.46 8.48 26.92 8.67L26.92 8.67L26.92 8.67Q27.38 8.86 28.27 9.06L28.27 9.06L28.27 9.06Q29.57 9.35 30.10 9.84L30.10 9.84L30.10 9.84Q30.63 10.33 30.63 11.14L30.63 11.14L30.63 11.14Q30.63 11.72 30.31 12.19L30.31 12.19L30.31 12.19Q29.99 12.67 29.36 12.95L29.36 12.95L29.36 12.95Q28.73 13.23 27.85 13.23L27.85 13.23ZM35.20 13.23L35.20 13.23Q33.74 13.23 32.94 12.34L32.94 12.34L32.94 12.34Q32.13 11.45 32.09 10.04L32.09 10.04L32.07 9.45L32.09 8.86L32.09 8.86Q32.13 7.45 32.94 6.56L32.94 6.56L32.94 6.56Q33.74 5.67 35.20 5.67L35.20 5.67L35.20 5.67Q36.65 5.67 37.46 6.56L37.46 6.56L37.46 6.56Q38.26 7.45 38.30 8.86L38.30 8.86L38.30 8.86Q38.32 9.00 38.32 9.45L38.32 9.45L38.32 9.45Q38.32 9.90 38.30 10.04L38.30 10.04L38.30 10.04Q38.26 11.45 37.46 12.34L37.46 12.34L37.46 12.34Q36.65 13.23 35.20 13.23L35.20 13.23ZM35.20 12.42L35.20 12.42Q36.19 12.42 36.80 11.78L36.80 11.78L36.80 11.78Q37.41 11.14 37.45 9.97L37.45 9.97L37.45 9.97Q37.46 9.83 37.46 9.45L37.46 9.45L37.46 9.45Q37.46 9.07 37.45 8.93L37.45 8.93L37.45 8.93Q37.41 7.76 36.80 7.12L36.80 7.12L36.80 7.12Q36.19 6.48 35.20 6.48L35.20 6.48L35.20 6.48Q34.20 6.48 33.59 7.12L33.59 7.12L33.59 7.12Q32.98 7.76 32.94 8.93L32.94 8.93L32.93 9.45L32.94 9.97L32.94 9.97Q32.98 11.14 33.59 11.78L33.59 11.78L33.59 11.78Q34.20 12.42 35.20 12.42L35.20 12.42ZM40.54 13.09L40.54 13.09Q40.40 13.09 40.32 13.01L40.32 13.01L40.32 13.01Q40.24 12.92 40.24 12.78L40.24 12.78L40.24 6.13L40.24 6.13Q40.24 5.99 40.32 5.90L40.32 5.90L40.32 5.90Q40.40 5.81 40.54 5.81L40.54 5.81L40.77 5.81L40.77 5.81Q40.91 5.81 41.00 5.90L41.00 5.90L41.00 5.90Q41.09 5.99 41.09 6.13L41.09 6.13L41.09 6.78L41.09 6.78Q41.59 5.81 42.99 5.81L42.99 5.81L43.51 5.81L43.51 5.81Q43.65 5.81 43.74 5.89L43.74 5.89L43.74 5.89Q43.82 5.98 43.82 6.12L43.82 6.12L43.82 6.31L43.82 6.31Q43.82 6.45 43.74 6.54L43.74 6.54L43.74 6.54Q43.65 6.62 43.51 6.62L43.51 6.62L42.91 6.62L42.91 6.62Q42.07 6.62 41.58 7.11L41.58 7.11L41.58 7.11Q41.09 7.60 41.09 8.44L41.09 8.44L41.09 12.78L41.09 12.78Q41.09 12.92 41.00 13.01L41.00 13.01L41.00 13.01Q40.91 13.09 40.77 13.09L40.77 13.09L40.54 13.09Z"></path></g><defs data-v-423bf9ae=""><linearGradient data-v-423bf9ae="" gradientTransform="rotate(25)" id="a56310d9-e905-4fcf-9010-f6633bf4df25" x1="0%" y1="0%" x2="100%" y2="0%"><stop data-v-423bf9ae="" offset="0%" style="stop-color: rgb(0, 102, 120); stop-opacity: 1;"></stop><stop data-v-423bf9ae="" offset="100%" style="stop-color: rgb(79, 168, 255); stop-opacity: 1;"></stop></linearGradient></defs><g data-v-423bf9ae="" id="97a1f0ef-55c6-42db-9c27-e9eea75cca46" transform="matrix(1.0894293891059028,0,0,1.0894293891059028,-5.257069264062899,-0.49361682853172084)" stroke="none" fill="url(#a56310d9-e905-4fcf-9010-f6633bf4df25)"><path d="M90.429 75.514l-1.1-.704a1.054 1.054 0 0 0-.396-.254L53.857 52.09l-3.314-29.486a8.24 8.24 0 0 0 2.584-5.991c0-4.561-3.71-8.271-8.271-8.271-.914 0-1.791.155-2.613.43-.483-.827-1.291-2.58-.877-3.692.074-.2.299-.807 1.649-1.183a1.5 1.5 0 0 0 1.042-1.848 1.498 1.498 0 0 0-1.848-1.042c-2.34.652-3.282 2.013-3.66 3.039-.874 2.373.417 5.055 1.064 6.175a8.259 8.259 0 0 0-3.03 6.393c0 4.561 3.711 8.271 8.272 8.271.478 0 .944-.05 1.4-.128l3.566 24.287-.14.422a.985.985 0 0 0-1.019.228c-.512.512-1.361.853-2.483 1.021L23.23 37.909a1.049 1.049 0 0 0-.263-.1c.091-.198.197-.387.271-.595.757-2.123.515-4.444-.682-6.536-1.153-2.017-3.069-3.583-5.394-4.413a10.502 10.502 0 0 0-3.536-.62c-3.781 0-6.959 2.061-8.097 5.251-1.533 4.296 1.193 9.208 6.075 10.95 1.151.411 2.34.619 3.533.619h.001a9.444 9.444 0 0 0 4.102-.917c.085.09.186.17.308.231L50.669 57.39l1.797 9.664 4.583 31.218c.073.496.5.728.989.728h.021c.12 0 .033-.021.139-.052l-.198.009v-.009c1-.106.859-.391.859-.823 0-.107.083-.086.052-.183L54.63 59.401l7.354 3.677 27.548 14.027c.146.075.314-.105.467-.105h.021c.553 0 1-.233 1-.786 0-.406-.243-.544-.591-.7zM39.584 16.613a5.277 5.277 0 0 1 5.272-5.271c2.906 0 5.271 2.365 5.271 5.271s-2.365 5.271-5.271 5.271a5.277 5.277 0 0 1-5.272-5.271zM15.14 39.466a7.504 7.504 0 0 1-2.526-.444c-3.324-1.186-5.234-4.378-4.258-7.117.706-1.979 2.775-3.259 5.272-3.259.85 0 1.7.15 2.528.445 1.651.589 3 1.682 3.797 3.077.755 1.32.918 2.754.46 4.039-.706 1.98-2.776 3.259-5.273 3.259z"></path><path d="M49.005 52.729a1.494 1.494 0 0 0 2.551 1.057l-2.113-2.114a1.489 1.489 0 0 0-.438 1.057z"></path><path d="M51.993 52.729a1.494 1.494 0 0 0-2.551-1.057l2.113 2.114c.27-.271.438-.645.438-1.057z"></path></g><!----><g data-v-423bf9ae="" id="965ebae7-3837-42a4-b360-e8a5c36c2e15" fill="#000000" transform="matrix(0.30508538216012393,0,0,0.30508538216012393,112.62227419135458,58.92914992456122)"><path d="M3.43 8.08L3.43 8.08L3.43 8.08Q3.35 8.01 3.28 7.85L3.28 7.85L3.28 7.85Q3.21 7.70 3.21 7.55L3.21 7.55L3.21 7.55Q3.37 7.06 3.52 6.42L3.52 6.42L3.52 6.42Q3.67 5.78 3.67 5.00L3.67 5.00L3.67 5.00Q3.67 4.65 3.63 4.28L3.63 4.28L3.63 4.28Q3.60 3.92 3.50 3.51L3.50 3.51L3.50 3.51Q4.17 3.56 4.73 3.80L4.73 3.80L4.73 3.80Q5.28 4.05 5.46 4.40L5.46 4.40L5.46 4.40Q5.22 5.67 4.73 6.61L4.73 6.61L4.73 6.61Q4.24 7.55 3.43 8.08ZM5.95 8.08L5.95 8.08L5.95 8.08Q5.87 8.01 5.80 7.85L5.80 7.85L5.80 7.85Q5.73 7.70 5.73 7.55L5.73 7.55L5.73 7.55Q5.89 7.06 6.04 6.42L6.04 6.42L6.04 6.42Q6.19 5.78 6.19 5.00L6.19 5.00L6.19 5.00Q6.19 4.65 6.15 4.28L6.15 4.28L6.15 4.28Q6.12 3.92 6.02 3.51L6.02 3.51L6.02 3.51Q6.69 3.56 7.25 3.80L7.25 3.80L7.25 3.80Q7.80 4.05 7.98 4.40L7.98 4.40L7.98 4.40Q7.74 5.67 7.25 6.61L7.25 6.61L7.25 6.61Q6.76 7.55 5.95 8.08ZM14.13 12.43L14.13 12.43L14.13 12.43Q14.13 11.45 14.36 10.51L14.36 10.51L14.36 10.51Q14.59 9.56 15.01 8.71L15.01 8.71L15.01 8.71Q15.43 7.87 16.01 7.16L16.01 7.16L16.01 7.16Q16.59 6.45 17.28 5.94L17.28 5.94L17.28 5.94Q17.98 5.42 18.76 5.13L18.76 5.13L18.76 5.13Q19.54 4.84 20.37 4.84L20.37 4.84L20.37 4.84Q21.34 4.84 21.88 5.25L21.88 5.25L21.88 5.25Q22.41 5.66 22.41 6.38L22.41 6.38L22.41 6.38Q22.41 6.66 22.34 6.96L22.34 6.96L22.34 6.96Q22.26 7.25 22.11 7.54L22.11 7.54L22.11 7.54Q21.97 7.83 21.77 8.09L21.77 8.09L21.77 8.09Q21.57 8.36 21.34 8.55L21.34 8.55L21.34 8.55Q20.97 8.50 20.71 8.22L20.71 8.22L20.71 8.22Q20.44 7.95 20.37 7.59L20.37 7.59L20.37 7.59Q20.86 7.18 21.15 6.74L21.15 6.74L21.15 6.74Q21.43 6.30 21.43 5.94L21.43 5.94L21.43 5.94Q21.43 5.32 20.66 5.32L20.66 5.32L20.66 5.32Q20.34 5.32 20.00 5.45L20.00 5.45L20.00 5.45Q19.66 5.59 19.31 5.82L19.31 5.82L19.31 5.82Q18.96 6.06 18.63 6.40L18.63 6.40L18.63 6.40Q18.30 6.73 18.02 7.14L18.02 7.14L18.02 7.14Q16.07 9.94 16.07 12.87L16.07 12.87L16.07 12.87Q16.07 13.90 16.39 14.53L16.39 14.53L16.39 14.53Q16.72 15.16 17.25 15.27L17.25 15.27L17.25 15.27Q17.85 15.13 18.77 14.50L18.77 14.50L18.77 14.50Q19.70 13.87 20.79 12.87L20.79 12.87L20.79 12.87Q20.93 13.01 20.96 13.16L20.96 13.16L20.96 13.16Q20.55 13.69 20.12 14.18L20.12 14.18L20.12 14.18Q19.68 14.67 19.26 15.08L19.26 15.08L19.26 15.08Q18.83 15.48 18.42 15.79L18.42 15.79L18.42 15.79Q18.00 16.10 17.65 16.27L17.65 16.27L17.65 16.27Q15.92 16.24 15.02 15.27L15.02 15.27L15.02 15.27Q14.13 14.31 14.13 12.43ZM34.38 5.75L34.38 5.75L34.38 5.75Q33.77 6.58 33.26 7.57L33.26 7.57L33.26 7.57Q32.76 8.57 32.40 9.61L32.40 9.61L32.40 9.61Q32.05 10.65 31.86 11.67L31.86 11.67L31.86 11.67Q31.67 12.68 31.67 13.57L31.67 13.57L31.67 13.57Q31.67 14.66 31.99 15.15L31.99 15.15L31.99 15.15Q32.31 15.64 33.10 15.64L33.10 15.64L33.10 15.64Q34.01 15.64 34.69 15.00L34.69 15.00L34.69 15.00Q35.38 14.36 35.98 13.24L35.98 13.24L35.98 13.24Q36.37 12.52 36.65 11.65L36.65 11.65L36.65 11.65Q36.93 10.78 37.11 9.86L37.11 9.86L37.11 9.86Q37.28 8.95 37.37 8.02L37.37 8.02L37.37 8.02Q37.45 7.08 37.45 6.23L37.45 6.23L37.45 6.23Q37.45 5.68 37.44 5.43L37.44 5.43L37.44 5.43Q37.42 5.18 37.39 5.03L37.39 5.03L37.39 5.03Q37.44 5.03 37.60 5.05L37.60 5.05L37.60 5.05Q37.77 5.08 37.99 5.12L37.99 5.12L37.99 5.12Q38.21 5.17 38.42 5.24L38.42 5.24L38.42 5.24Q38.64 5.31 38.79 5.39L38.79 5.39L38.79 5.39Q38.72 6.45 38.54 7.59L38.54 7.59L38.54 7.59Q38.35 8.72 38.04 9.83L38.04 9.83L38.04 9.83Q37.73 10.93 37.32 11.96L37.32 11.96L37.32 11.96Q36.92 12.98 36.41 13.79L36.41 13.79L36.41 13.79Q35.67 14.99 34.75 15.67L34.75 15.67L34.75 15.67Q33.82 16.35 32.56 16.35L32.56 16.35L32.56 16.35Q31.28 16.35 30.56 15.60L30.56 15.60L30.56 15.60Q29.85 14.85 29.85 13.33L29.85 13.33L29.85 13.33Q29.85 12.45 30.04 11.33L30.04 11.33L30.04 11.33Q30.24 10.22 30.57 9.07L30.57 9.07L30.57 9.07Q30.90 7.91 31.33 6.81L31.33 6.81L31.33 6.81Q31.77 5.71 32.24 4.84L32.24 4.84L32.24 4.84Q32.48 4.86 32.80 4.94L32.80 4.94L32.80 4.94Q33.12 5.03 33.43 5.16L33.43 5.16L33.43 5.16Q33.74 5.29 34.00 5.45L34.00 5.45L34.00 5.45Q34.26 5.61 34.38 5.75ZM48.43 6.69L48.43 6.69L48.43 6.69Q47.87 6.69 47.57 6.38L47.57 6.38L47.57 6.38Q47.26 6.06 47.26 5.61L47.26 5.61L47.26 5.61Q47.26 5.50 47.30 5.35L47.30 5.35L47.30 5.35Q47.33 5.19 47.39 5.08L47.39 5.08L47.39 5.08Q47.57 5.17 47.93 5.20L47.93 5.20L47.93 5.20Q48.29 5.24 48.76 5.24L48.76 5.24L48.76 5.24Q49.48 5.24 50.38 5.17L50.38 5.17L50.38 5.17Q51.28 5.11 52.11 5.04L52.11 5.04L52.11 5.04Q52.93 4.97 53.56 4.91L53.56 4.91L53.56 4.91Q54.19 4.84 54.38 4.84L54.38 4.84L54.38 4.84Q54.89 4.84 55.13 5.23L55.13 5.23L55.13 5.23Q55.36 5.61 55.47 6.26L55.47 6.26L55.47 6.26Q55.10 6.23 54.75 6.21L54.75 6.21L54.75 6.21Q54.39 6.19 54.14 6.19L54.14 6.19L54.14 6.19Q53.69 6.19 53.23 6.22L53.23 6.22L53.23 6.22Q52.78 6.24 52.32 6.30L52.32 6.30L52.32 6.30Q52.12 6.71 51.88 7.26L51.88 7.26L51.88 7.26Q51.65 7.81 51.41 8.41L51.41 8.41L51.41 8.41Q51.18 9.02 50.97 9.61L50.97 9.61L50.97 9.61Q50.76 10.21 50.61 10.68L50.61 10.68L50.61 10.68Q50.30 11.61 50.07 12.39L50.07 12.39L50.07 12.39Q49.84 13.17 49.66 13.85L49.66 13.85L49.66 13.85Q49.49 14.53 49.36 15.15L49.36 15.15L49.36 15.15Q49.24 15.76 49.14 16.35L49.14 16.35L49.14 16.35Q48.20 16.21 47.57 15.18L47.57 15.18L47.57 15.18Q47.68 14.74 47.84 14.23L47.84 14.23L47.84 14.23Q48.01 13.72 48.22 13.07L48.22 13.07L48.22 13.07Q48.44 12.42 48.73 11.59L48.73 11.59L48.73 11.59Q49.03 10.77 49.41 9.72L49.41 9.72L49.41 9.72Q49.55 9.32 49.70 8.90L49.70 8.90L49.70 8.90Q49.85 8.47 50.00 8.05L50.00 8.05L50.00 8.05Q50.15 7.63 50.27 7.24L50.27 7.24L50.27 7.24Q50.39 6.85 50.47 6.52L50.47 6.52L50.47 6.52Q49.88 6.59 49.36 6.64L49.36 6.64L49.36 6.64Q48.83 6.69 48.43 6.69ZM73.99 6.69L73.99 6.69L73.99 6.69Q73.43 6.69 73.13 6.38L73.13 6.38L73.13 6.38Q72.83 6.06 72.83 5.61L72.83 5.61L72.83 5.61Q72.83 5.50 72.86 5.35L72.86 5.35L72.86 5.35Q72.90 5.19 72.95 5.08L72.95 5.08L72.95 5.08Q73.14 5.17 73.49 5.20L73.49 5.20L73.49 5.20Q73.85 5.24 74.33 5.24L74.33 5.24L74.33 5.24Q75.04 5.24 75.94 5.17L75.94 5.17L75.94 5.17Q76.85 5.11 77.67 5.04L77.67 5.04L77.67 5.04Q78.50 4.97 79.13 4.91L79.13 4.91L79.13 4.91Q79.76 4.84 79.94 4.84L79.94 4.84L79.94 4.84Q80.46 4.84 80.69 5.23L80.69 5.23L80.69 5.23Q80.92 5.61 81.03 6.26L81.03 6.26L81.03 6.26Q80.67 6.23 80.31 6.21L80.31 6.21L80.31 6.21Q79.95 6.19 79.70 6.19L79.70 6.19L79.70 6.19Q79.25 6.19 78.80 6.22L78.80 6.22L78.80 6.22Q78.34 6.24 77.88 6.30L77.88 6.30L77.88 6.30Q77.69 6.71 77.45 7.26L77.45 7.26L77.45 7.26Q77.21 7.81 76.98 8.41L76.98 8.41L76.98 8.41Q76.75 9.02 76.54 9.61L76.54 9.61L76.54 9.61Q76.33 10.21 76.17 10.68L76.17 10.68L76.17 10.68Q75.87 11.61 75.64 12.39L75.64 12.39L75.64 12.39Q75.40 13.17 75.23 13.85L75.23 13.85L75.23 13.85Q75.05 14.53 74.93 15.15L74.93 15.15L74.93 15.15Q74.80 15.76 74.70 16.35L74.70 16.35L74.70 16.35Q73.77 16.21 73.14 15.18L73.14 15.18L73.14 15.18Q73.25 14.74 73.41 14.23L73.41 14.23L73.41 14.23Q73.57 13.72 73.79 13.07L73.79 13.07L73.79 13.07Q74.00 12.42 74.30 11.59L74.30 11.59L74.30 11.59Q74.59 10.77 74.97 9.72L74.97 9.72L74.97 9.72Q75.11 9.32 75.26 8.90L75.26 8.90L75.26 8.90Q75.42 8.47 75.56 8.05L75.56 8.05L75.56 8.05Q75.71 7.63 75.83 7.24L75.83 7.24L75.83 7.24Q75.95 6.85 76.03 6.52L76.03 6.52L76.03 6.52Q75.45 6.59 74.92 6.64L74.92 6.64L74.92 6.64Q74.40 6.69 73.99 6.69ZM91.91 14.36L91.91 14.36L91.91 14.36Q91.91 13.78 92.11 12.85L92.11 12.85L92.11 12.85Q92.30 11.93 92.62 10.88L92.62 10.88L92.62 10.88Q91.70 10.95 90.77 11.06L90.77 11.06L90.77 11.06Q89.84 11.17 89.15 11.19L89.15 11.19L89.15 11.19Q88.52 12.66 88.15 13.89L88.15 13.89L88.15 13.89Q87.78 15.13 87.57 16.31L87.57 16.31L87.57 16.31Q87.04 16.18 86.69 15.87L86.69 15.87L86.69 15.87Q86.34 15.55 86.04 15.08L86.04 15.08L86.04 15.08Q86.16 14.85 86.30 14.50L86.30 14.50L86.30 14.50Q86.45 14.15 86.65 13.66L86.65 13.66L86.65 13.66Q86.86 13.16 87.11 12.50L87.11 12.50L87.11 12.50Q87.37 11.83 87.71 10.95L87.71 10.95L87.71 10.95Q87.25 10.75 87.09 10.40L87.09 10.40L87.09 10.40Q87.16 10.35 87.41 10.28L87.41 10.28L87.41 10.28Q87.65 10.22 88.02 10.15L88.02 10.15L88.20 9.70L88.20 9.70Q88.49 8.95 88.68 8.43L88.68 8.43L88.68 8.43Q88.87 7.91 89.00 7.41L89.00 7.41L89.00 7.41Q89.14 6.92 89.26 6.31L89.26 6.31L89.26 6.31Q89.38 5.71 89.54 4.79L89.54 4.79L89.54 4.79Q90.13 4.90 90.61 5.31L90.61 5.31L90.61 5.31Q91.10 5.71 91.45 6.29L91.45 6.29L91.45 6.29Q91.32 6.45 91.14 6.79L91.14 6.79L91.14 6.79Q90.96 7.13 90.74 7.59L90.74 7.59L90.74 7.59Q90.52 8.06 90.27 8.64L90.27 8.64L90.27 8.64Q90.02 9.23 89.73 9.87L89.73 9.87L89.73 9.87Q90.59 9.76 91.48 9.66L91.48 9.66L91.48 9.66Q92.37 9.56 93.06 9.52L93.06 9.52L93.06 9.52Q93.31 8.79 93.58 8.10L93.58 8.10L93.58 8.10Q93.86 7.41 94.12 6.83L94.12 6.83L94.12 6.83Q94.39 6.26 94.63 5.82L94.63 5.82L94.63 5.82Q94.88 5.39 95.07 5.18L95.07 5.18L95.07 5.18Q95.21 5.19 95.45 5.29L95.45 5.29L95.45 5.29Q95.68 5.38 95.91 5.50L95.91 5.50L95.91 5.50Q96.15 5.63 96.35 5.78L96.35 5.78L96.35 5.78Q96.54 5.92 96.61 6.05L96.61 6.05L96.61 6.05Q96.36 6.29 96.11 6.66L96.11 6.66L96.11 6.66Q95.86 7.04 95.61 7.53L95.61 7.53L95.61 7.53Q95.37 8.02 95.13 8.60L95.13 8.60L95.13 8.60Q94.89 9.17 94.68 9.79L94.68 9.79L94.68 9.79Q94.96 10.04 94.96 10.42L94.96 10.42L94.96 10.42Q94.96 10.68 94.85 10.91L94.85 10.91L94.85 10.91Q94.72 10.88 94.60 10.87L94.60 10.87L94.60 10.87Q94.47 10.86 94.33 10.85L94.33 10.85L94.33 10.85Q94.09 11.61 93.90 12.35L93.90 12.35L93.90 12.35Q93.70 13.09 93.57 13.76L93.57 13.76L93.57 13.76Q93.44 14.43 93.36 14.99L93.36 14.99L93.36 14.99Q93.28 15.55 93.28 15.93L93.28 15.93L93.28 15.93Q93.28 16.07 93.29 16.16L93.29 16.16L93.29 16.16Q93.30 16.24 93.31 16.30L93.31 16.30L93.31 16.30Q93.00 16.28 92.86 16.19L92.86 16.19L92.86 16.19Q92.72 16.10 92.65 16.00L92.65 16.00L92.65 16.00Q92.58 15.89 92.53 15.79L92.53 15.79L92.53 15.79Q92.47 15.68 92.34 15.62L92.34 15.62L92.34 15.62Q92.25 15.58 92.16 15.43L92.16 15.43L92.16 15.43Q92.08 15.27 92.02 15.08L92.02 15.08L92.02 15.08Q91.97 14.88 91.94 14.69L91.94 14.69L91.94 14.69Q91.91 14.49 91.91 14.36ZM112.42 7.46L112.42 7.46L112.42 7.46Q112.42 8.13 112.12 8.73L112.12 8.73L112.12 8.73Q111.82 9.32 111.29 9.79L111.29 9.79L111.29 9.79Q110.75 10.26 110.04 10.58L110.04 10.58L110.04 10.58Q109.33 10.91 108.49 11.02L108.49 11.02L108.49 11.02Q108.70 11.65 109.00 12.31L109.00 12.31L109.00 12.31Q109.30 12.98 109.65 13.59L109.65 13.59L109.65 13.59Q110.00 14.21 110.38 14.73L110.38 14.73L110.38 14.73Q110.75 15.25 111.12 15.58L111.12 15.58L111.12 15.58Q111.05 15.72 110.92 15.86L110.92 15.86L110.92 15.86Q110.78 16.00 110.61 16.12L110.61 16.12L110.61 16.12Q110.43 16.24 110.24 16.32L110.24 16.32L110.24 16.32Q110.05 16.39 109.89 16.39L109.89 16.39L109.89 16.39Q109.58 16.39 109.30 16.10L109.30 16.10L109.30 16.10Q109.02 15.81 108.73 15.17L108.73 15.17L108.73 15.17Q108.44 14.53 108.13 13.52L108.13 13.52L108.13 13.52Q107.81 12.50 107.44 11.07L107.44 11.07L107.44 11.07Q107.28 11.07 107.13 11.07L107.13 11.07L107.13 11.07Q106.97 11.07 106.89 11.05L106.89 11.05L106.89 11.05Q106.79 10.99 106.68 10.85L106.68 10.85L106.68 10.85Q106.30 11.66 106.01 12.38L106.01 12.38L106.01 12.38Q105.71 13.09 105.48 13.76L105.48 13.76L105.48 13.76Q105.25 14.42 105.08 15.04L105.08 15.04L105.08 15.04Q104.90 15.67 104.78 16.31L104.78 16.31L104.78 16.31Q104.30 16.20 103.95 15.90L103.95 15.90L103.95 15.90Q103.60 15.61 103.29 15.08L103.29 15.08L103.29 15.08Q103.35 14.95 103.41 14.83L103.41 14.83L103.41 14.83Q103.47 14.71 103.57 14.50L103.57 14.50L103.57 14.50Q103.67 14.28 103.82 13.94L103.82 13.94L103.82 13.94Q103.96 13.61 104.21 13.05L104.21 13.05L104.21 13.05Q104.45 12.49 104.80 11.68L104.80 11.68L104.80 11.68Q105.14 10.86 105.63 9.70L105.63 9.70L105.63 9.70Q105.85 9.18 106.02 8.79L106.02 8.79L106.02 8.79Q106.18 8.40 106.30 8.04L106.30 8.04L106.30 8.04Q106.43 7.69 106.53 7.33L106.53 7.33L106.53 7.33Q106.64 6.97 106.75 6.51L106.75 6.51L106.75 6.51Q106.11 6.73 105.55 7.01L105.55 7.01L105.55 7.01Q105 7.28 104.64 7.59L104.64 7.59L104.64 7.59Q104.51 7.50 104.38 7.34L104.38 7.34L104.38 7.34Q104.24 7.17 104.13 6.96L104.13 6.96L104.13 6.96Q104.02 6.76 103.94 6.55L103.94 6.55L103.94 6.55Q103.85 6.34 103.84 6.17L103.84 6.17L103.84 6.17Q104.26 5.89 104.87 5.66L104.87 5.66L104.87 5.66Q105.48 5.42 106.16 5.24L106.16 5.24L106.16 5.24Q106.85 5.07 107.56 4.97L107.56 4.97L107.56 4.97Q108.28 4.87 108.89 4.87L108.89 4.87L108.89 4.87Q110.57 4.87 111.50 5.56L111.50 5.56L111.50 5.56Q112.42 6.26 112.42 7.46ZM108.84 6.02L109.00 6.29L109.00 6.29Q108.91 6.41 108.70 6.79L108.70 6.79L108.70 6.79Q108.49 7.17 108.21 7.69L108.21 7.69L108.21 7.69Q107.94 8.22 107.64 8.83L107.64 8.83L107.64 8.83Q107.34 9.45 107.06 10.05L107.06 10.05L107.06 10.05Q108.11 10.05 108.99 9.86L108.99 9.86L108.99 9.86Q109.87 9.66 110.52 9.30L110.52 9.30L110.52 9.30Q111.16 8.95 111.52 8.46L111.52 8.46L111.52 8.46Q111.87 7.98 111.87 7.39L111.87 7.39L111.87 7.39Q111.87 6.69 111.37 6.32L111.37 6.32L111.37 6.32Q110.87 5.95 109.82 5.95L109.82 5.95L109.82 5.95Q109.58 5.95 109.34 5.97L109.34 5.97L109.34 5.97Q109.10 5.99 108.84 6.02L108.84 6.02ZM125.92 4.98L125.92 4.98L125.92 4.98Q126.18 5.10 126.46 5.27L126.46 5.27L126.46 5.27Q126.74 5.45 126.98 5.63L126.98 5.63L126.98 5.63Q127.22 5.81 127.38 5.98L127.38 5.98L127.38 5.98Q127.54 6.16 127.55 6.27L127.55 6.27L127.55 6.27Q127.32 6.22 127.08 6.20L127.08 6.20L127.08 6.20Q126.84 6.17 126.64 6.17L126.64 6.17L126.64 6.17Q126.01 6.17 125.39 6.48L125.39 6.48L125.39 6.48Q124.77 6.79 124.21 7.32L124.21 7.32L124.21 7.32Q123.65 7.85 123.17 8.57L123.17 8.57L123.17 8.57Q122.70 9.28 122.35 10.09L122.35 10.09L122.35 10.09Q122.01 10.91 121.81 11.77L121.81 11.77L121.81 11.77Q121.62 12.64 121.62 13.48L121.62 13.48L121.62 13.48Q121.62 14.57 121.98 15.11L121.98 15.11L121.98 15.11Q122.35 15.64 123.05 15.64L123.05 15.64L123.05 15.64Q123.38 15.64 123.77 15.51L123.77 15.51L123.77 15.51Q124.17 15.37 124.57 15.13L124.57 15.13L124.57 15.13Q124.98 14.90 125.37 14.56L125.37 14.56L125.37 14.56Q125.76 14.22 126.10 13.82L126.10 13.82L126.10 13.82Q126.59 13.23 126.98 12.48L126.98 12.48L126.98 12.48Q127.37 11.73 127.64 10.89L127.64 10.89L127.64 10.89Q127.92 10.05 128.06 9.16L128.06 9.16L128.06 9.16Q128.21 8.27 128.21 7.42L128.21 7.42L128.21 7.42Q128.21 7.08 128.20 6.85L128.20 6.85L128.20 6.85Q128.18 6.62 128.16 6.46L128.16 6.46L128.16 6.46Q128.14 6.30 128.13 6.20L128.13 6.20L128.13 6.20Q128.11 6.10 128.10 6.03L128.10 6.03L128.10 6.03Q128.27 6.12 128.47 6.24L128.47 6.24L128.47 6.24Q128.67 6.36 128.85 6.59L128.85 6.59L128.85 6.59Q129.02 6.82 129.14 7.20L129.14 7.20L129.14 7.20Q129.26 7.57 129.26 8.18L129.26 8.18L129.26 8.18Q129.26 9.16 129.03 10.10L129.03 10.10L129.03 10.10Q128.80 11.05 128.39 11.90L128.39 11.90L128.39 11.90Q127.97 12.75 127.41 13.50L127.41 13.50L127.41 13.50Q126.85 14.24 126.21 14.80L126.21 14.80L126.21 14.80Q125.37 15.54 124.42 15.95L124.42 15.95L124.42 15.95Q123.47 16.35 122.58 16.35L122.58 16.35L122.58 16.35Q121.30 16.35 120.62 15.53L120.62 15.53L120.62 15.53Q119.94 14.71 119.94 13.12L119.94 13.12L119.94 13.12Q119.94 12.26 120.13 11.31L120.13 11.31L120.13 11.31Q120.32 10.36 120.66 9.44L120.66 9.44L120.66 9.44Q121.00 8.51 121.48 7.68L121.48 7.68L121.48 7.68Q121.95 6.85 122.52 6.21L122.52 6.21L122.52 6.21Q123.09 5.57 123.74 5.19L123.74 5.19L123.74 5.19Q124.39 4.82 125.08 4.82L125.08 4.82L125.08 4.82Q125.30 4.82 125.50 4.85L125.50 4.85L125.50 4.85Q125.69 4.89 125.92 4.98ZM141.96 5.75L141.96 5.75L141.96 5.75Q141.34 6.58 140.84 7.57L140.84 7.57L140.84 7.57Q140.34 8.57 139.98 9.61L139.98 9.61L139.98 9.61Q139.62 10.65 139.43 11.67L139.43 11.67L139.43 11.67Q139.24 12.68 139.24 13.57L139.24 13.57L139.24 13.57Q139.24 14.66 139.57 15.15L139.57 15.15L139.57 15.15Q139.89 15.64 140.67 15.64L140.67 15.64L140.67 15.64Q141.58 15.64 142.27 15.00L142.27 15.00L142.27 15.00Q142.95 14.36 143.56 13.24L143.56 13.24L143.56 13.24Q143.95 12.52 144.23 11.65L144.23 11.65L144.23 11.65Q144.51 10.78 144.68 9.86L144.68 9.86L144.68 9.86Q144.86 8.95 144.94 8.02L144.94 8.02L144.94 8.02Q145.03 7.08 145.03 6.23L145.03 6.23L145.03 6.23Q145.03 5.68 145.01 5.43L145.01 5.43L145.01 5.43Q145.00 5.18 144.97 5.03L144.97 5.03L144.97 5.03Q145.01 5.03 145.18 5.05L145.18 5.05L145.18 5.05Q145.35 5.08 145.57 5.12L145.57 5.12L145.57 5.12Q145.78 5.17 146.00 5.24L146.00 5.24L146.00 5.24Q146.22 5.31 146.37 5.39L146.37 5.39L146.37 5.39Q146.30 6.45 146.11 7.59L146.11 7.59L146.11 7.59Q145.92 8.72 145.61 9.83L145.61 9.83L145.61 9.83Q145.31 10.93 144.90 11.96L144.90 11.96L144.90 11.96Q144.49 12.98 143.99 13.79L143.99 13.79L143.99 13.79Q143.25 14.99 142.32 15.67L142.32 15.67L142.32 15.67Q141.40 16.35 140.14 16.35L140.14 16.35L140.14 16.35Q138.85 16.35 138.14 15.60L138.14 15.60L138.14 15.60Q137.42 14.85 137.42 13.33L137.42 13.33L137.42 13.33Q137.42 12.45 137.62 11.33L137.62 11.33L137.62 11.33Q137.82 10.22 138.15 9.07L138.15 9.07L138.15 9.07Q138.47 7.91 138.91 6.81L138.91 6.81L138.91 6.81Q139.34 5.71 139.82 4.84L139.82 4.84L139.82 4.84Q140.06 4.86 140.38 4.94L140.38 4.94L140.38 4.94Q140.70 5.03 141.01 5.16L141.01 5.16L141.01 5.16Q141.32 5.29 141.58 5.45L141.58 5.45L141.58 5.45Q141.83 5.61 141.96 5.75ZM161.10 10.72L161.10 10.72L161.10 10.72Q161.46 10.72 161.67 10.98L161.67 10.98L161.67 10.98Q161.88 11.23 161.88 11.68L161.88 11.68L161.88 11.68Q161.88 11.79 161.87 11.91L161.87 11.91L161.87 11.91Q161.85 12.03 161.83 12.11L161.83 12.11L161.83 12.11Q161.53 12.04 161.18 12.03L161.18 12.03L161.18 12.03Q161.10 12.64 160.73 13.32L160.73 13.32L160.73 13.32Q160.37 14 159.85 14.60L159.85 14.60L159.85 14.60Q159.33 15.19 158.72 15.64L158.72 15.64L158.72 15.64Q158.10 16.09 157.50 16.24L157.50 16.24L157.50 16.24Q155.62 16.20 154.76 15.27L154.76 15.27L154.76 15.27Q153.90 14.34 153.90 12.36L153.90 12.36L153.90 12.36Q153.90 10.92 154.43 9.57L154.43 9.57L154.43 9.57Q154.97 8.22 155.85 7.17L155.85 7.17L155.85 7.17Q156.73 6.12 157.87 5.48L157.87 5.48L157.87 5.48Q159.01 4.84 160.24 4.84L160.24 4.84L160.24 4.84Q161.21 4.84 161.75 5.25L161.75 5.25L161.75 5.25Q162.29 5.66 162.29 6.40L162.29 6.40L162.29 6.40Q162.29 6.89 162.06 7.31L162.06 7.31L162.06 7.31Q161.83 7.73 161.29 8.22L161.29 8.22L161.29 8.22Q160.97 8.12 160.73 7.88L160.73 7.88L160.73 7.88Q160.50 7.63 160.44 7.31L160.44 7.31L160.44 7.31Q160.92 6.96 161.11 6.66L161.11 6.66L161.11 6.66Q161.31 6.37 161.31 5.96L161.31 5.96L161.31 5.96Q161.31 5.32 160.54 5.32L160.54 5.32L160.54 5.32Q159.91 5.32 159.19 5.79L159.19 5.79L159.19 5.79Q158.47 6.26 157.74 7.14L157.74 7.14L157.74 7.14Q156.70 8.39 156.23 9.71L156.23 9.71L156.23 9.71Q155.75 11.03 155.75 12.68L155.75 12.68L155.75 12.68Q155.75 13.30 155.88 13.80L155.88 13.80L155.88 13.80Q156.00 14.31 156.21 14.69L156.21 14.69L156.21 14.69Q156.42 15.06 156.71 15.29L156.71 15.29L156.71 15.29Q157.00 15.51 157.33 15.54L157.33 15.54L157.33 15.54Q157.78 15.44 158.23 15.09L158.23 15.09L158.23 15.09Q158.68 14.73 159.05 14.25L159.05 14.25L159.05 14.25Q159.42 13.76 159.68 13.21L159.68 13.21L159.68 13.21Q159.94 12.66 159.99 12.15L159.99 12.15L159.99 12.15Q159.60 12.24 159.24 12.31L159.24 12.31L159.24 12.31Q158.89 12.39 158.56 12.39L158.56 12.39L158.56 12.39Q158.14 12.39 157.83 12.18L157.83 12.18L157.83 12.18Q157.51 11.97 157.40 11.61L157.40 11.61L157.40 11.61Q157.65 11.47 158.14 11.31L158.14 11.31L158.14 11.31Q158.62 11.16 159.17 11.03L159.17 11.03L159.17 11.03Q159.71 10.89 160.24 10.81L160.24 10.81L160.24 10.81Q160.76 10.72 161.10 10.72ZM174.90 14.36L174.90 14.36L174.90 14.36Q174.90 13.78 175.10 12.85L175.10 12.85L175.10 12.85Q175.29 11.93 175.62 10.88L175.62 10.88L175.62 10.88Q174.69 10.95 173.76 11.06L173.76 11.06L173.76 11.06Q172.83 11.17 172.14 11.19L172.14 11.19L172.14 11.19Q171.51 12.66 171.14 13.89L171.14 13.89L171.14 13.89Q170.77 15.13 170.56 16.31L170.56 16.31L170.56 16.31Q170.03 16.18 169.68 15.87L169.68 15.87L169.68 15.87Q169.33 15.55 169.04 15.08L169.04 15.08L169.04 15.08Q169.15 14.85 169.30 14.50L169.30 14.50L169.30 14.50Q169.44 14.15 169.65 13.66L169.65 13.66L169.65 13.66Q169.85 13.16 170.11 12.50L170.11 12.50L170.11 12.50Q170.37 11.83 170.70 10.95L170.70 10.95L170.70 10.95Q170.24 10.75 170.09 10.40L170.09 10.40L170.09 10.40Q170.16 10.35 170.40 10.28L170.40 10.28L170.40 10.28Q170.65 10.22 171.01 10.15L171.01 10.15L171.19 9.70L171.19 9.70Q171.49 8.95 171.68 8.43L171.68 8.43L171.68 8.43Q171.86 7.91 172.00 7.41L172.00 7.41L172.00 7.41Q172.13 6.92 172.25 6.31L172.25 6.31L172.25 6.31Q172.37 5.71 172.54 4.79L172.54 4.79L172.54 4.79Q173.12 4.90 173.61 5.31L173.61 5.31L173.61 5.31Q174.09 5.71 174.44 6.29L174.44 6.29L174.44 6.29Q174.31 6.45 174.13 6.79L174.13 6.79L174.13 6.79Q173.95 7.13 173.73 7.59L173.73 7.59L173.73 7.59Q173.52 8.06 173.26 8.64L173.26 8.64L173.26 8.64Q173.01 9.23 172.72 9.87L172.72 9.87L172.72 9.87Q173.59 9.76 174.48 9.66L174.48 9.66L174.48 9.66Q175.36 9.56 176.05 9.52L176.05 9.52L176.05 9.52Q176.30 8.79 176.58 8.10L176.58 8.10L176.58 8.10Q176.85 7.41 177.11 6.83L177.11 6.83L177.11 6.83Q177.38 6.26 177.63 5.82L177.63 5.82L177.63 5.82Q177.87 5.39 178.07 5.18L178.07 5.18L178.07 5.18Q178.21 5.19 178.44 5.29L178.44 5.29L178.44 5.29Q178.67 5.38 178.91 5.50L178.91 5.50L178.91 5.50Q179.14 5.63 179.34 5.78L179.34 5.78L179.34 5.78Q179.54 5.92 179.61 6.05L179.61 6.05L179.61 6.05Q179.35 6.29 179.10 6.66L179.10 6.66L179.10 6.66Q178.85 7.04 178.61 7.53L178.61 7.53L178.61 7.53Q178.36 8.02 178.12 8.60L178.12 8.60L178.12 8.60Q177.88 9.17 177.67 9.79L177.67 9.79L177.67 9.79Q177.95 10.04 177.95 10.42L177.95 10.42L177.95 10.42Q177.95 10.68 177.84 10.91L177.84 10.91L177.84 10.91Q177.72 10.88 177.59 10.87L177.59 10.87L177.59 10.87Q177.46 10.86 177.32 10.85L177.32 10.85L177.32 10.85Q177.09 11.61 176.89 12.35L176.89 12.35L176.89 12.35Q176.69 13.09 176.56 13.76L176.56 13.76L176.56 13.76Q176.43 14.43 176.35 14.99L176.35 14.99L176.35 14.99Q176.27 15.55 176.27 15.93L176.27 15.93L176.27 15.93Q176.27 16.07 176.28 16.16L176.28 16.16L176.28 16.16Q176.29 16.24 176.30 16.30L176.30 16.30L176.30 16.30Q175.99 16.28 175.85 16.19L175.85 16.19L175.85 16.19Q175.71 16.10 175.64 16.00L175.64 16.00L175.64 16.00Q175.57 15.89 175.52 15.79L175.52 15.79L175.52 15.79Q175.46 15.68 175.34 15.62L175.34 15.62L175.34 15.62Q175.24 15.58 175.15 15.43L175.15 15.43L175.15 15.43Q175.07 15.27 175.01 15.08L175.01 15.08L175.01 15.08Q174.96 14.88 174.93 14.69L174.93 14.69L174.93 14.69Q174.90 14.49 174.90 14.36ZM199.00 6.69L199.00 6.69L199.00 6.69Q198.44 6.69 198.13 6.38L198.13 6.38L198.13 6.38Q197.83 6.06 197.83 5.61L197.83 5.61L197.83 5.61Q197.83 5.50 197.87 5.35L197.87 5.35L197.87 5.35Q197.90 5.19 197.96 5.08L197.96 5.08L197.96 5.08Q198.14 5.17 198.50 5.20L198.50 5.20L198.50 5.20Q198.86 5.24 199.33 5.24L199.33 5.24L199.33 5.24Q200.05 5.24 200.95 5.17L200.95 5.17L200.95 5.17Q201.85 5.11 202.68 5.04L202.68 5.04L202.68 5.04Q203.50 4.97 204.13 4.91L204.13 4.91L204.13 4.91Q204.76 4.84 204.95 4.84L204.95 4.84L204.95 4.84Q205.46 4.84 205.69 5.23L205.69 5.23L205.69 5.23Q205.93 5.61 206.04 6.26L206.04 6.26L206.04 6.26Q205.67 6.23 205.32 6.21L205.32 6.21L205.32 6.21Q204.96 6.19 204.71 6.19L204.71 6.19L204.71 6.19Q204.26 6.19 203.81 6.22L203.81 6.22L203.81 6.22Q203.35 6.24 202.89 6.30L202.89 6.30L202.89 6.30Q202.69 6.71 202.45 7.26L202.45 7.26L202.45 7.26Q202.22 7.81 201.99 8.41L201.99 8.41L201.99 8.41Q201.75 9.02 201.54 9.61L201.54 9.61L201.54 9.61Q201.33 10.21 201.18 10.68L201.18 10.68L201.18 10.68Q200.87 11.61 200.64 12.39L200.64 12.39L200.64 12.39Q200.41 13.17 200.24 13.85L200.24 13.85L200.24 13.85Q200.06 14.53 199.93 15.15L199.93 15.15L199.93 15.15Q199.81 15.76 199.71 16.35L199.71 16.35L199.71 16.35Q198.77 16.21 198.14 15.18L198.14 15.18L198.14 15.18Q198.25 14.74 198.41 14.23L198.41 14.23L198.41 14.23Q198.58 13.72 198.79 13.07L198.79 13.07L198.79 13.07Q199.01 12.42 199.30 11.59L199.30 11.59L199.30 11.59Q199.60 10.77 199.98 9.72L199.98 9.72L199.98 9.72Q200.12 9.32 200.27 8.90L200.27 8.90L200.27 8.90Q200.42 8.47 200.57 8.05L200.57 8.05L200.57 8.05Q200.72 7.63 200.84 7.24L200.84 7.24L200.84 7.24Q200.96 6.85 201.04 6.52L201.04 6.52L201.04 6.52Q200.45 6.59 199.93 6.64L199.93 6.64L199.93 6.64Q199.40 6.69 199.00 6.69ZM216.92 14.36L216.92 14.36L216.92 14.36Q216.92 13.78 217.11 12.85L217.11 12.85L217.11 12.85Q217.31 11.93 217.63 10.88L217.63 10.88L217.63 10.88Q216.71 10.95 215.78 11.06L215.78 11.06L215.78 11.06Q214.84 11.17 214.16 11.19L214.16 11.19L214.16 11.19Q213.53 12.66 213.16 13.89L213.16 13.89L213.16 13.89Q212.79 15.13 212.58 16.31L212.58 16.31L212.58 16.31Q212.04 16.18 211.69 15.87L211.69 15.87L211.69 15.87Q211.34 15.55 211.05 15.08L211.05 15.08L211.05 15.08Q211.16 14.85 211.31 14.50L211.31 14.50L211.31 14.50Q211.46 14.15 211.66 13.66L211.66 13.66L211.66 13.66Q211.86 13.16 212.12 12.50L212.12 12.50L212.12 12.50Q212.38 11.83 212.72 10.95L212.72 10.95L212.72 10.95Q212.25 10.75 212.10 10.40L212.10 10.40L212.10 10.40Q212.17 10.35 212.41 10.28L212.41 10.28L212.41 10.28Q212.66 10.22 213.02 10.15L213.02 10.15L213.21 9.70L213.21 9.70Q213.50 8.95 213.69 8.43L213.69 8.43L213.69 8.43Q213.88 7.91 214.01 7.41L214.01 7.41L214.01 7.41Q214.14 6.92 214.26 6.31L214.26 6.31L214.26 6.31Q214.38 5.71 214.55 4.79L214.55 4.79L214.55 4.79Q215.14 4.90 215.62 5.31L215.62 5.31L215.62 5.31Q216.10 5.71 216.45 6.29L216.45 6.29L216.45 6.29Q216.33 6.45 216.15 6.79L216.15 6.79L216.15 6.79Q215.96 7.13 215.75 7.59L215.75 7.59L215.75 7.59Q215.53 8.06 215.28 8.64L215.28 8.64L215.28 8.64Q215.03 9.23 214.73 9.87L214.73 9.87L214.73 9.87Q215.60 9.76 216.49 9.66L216.49 9.66L216.49 9.66Q217.38 9.56 218.06 9.52L218.06 9.52L218.06 9.52Q218.32 8.79 218.59 8.10L218.59 8.10L218.59 8.10Q218.86 7.41 219.13 6.83L219.13 6.83L219.13 6.83Q219.39 6.26 219.64 5.82L219.64 5.82L219.64 5.82Q219.88 5.39 220.08 5.18L220.08 5.18L220.08 5.18Q220.22 5.19 220.45 5.29L220.45 5.29L220.45 5.29Q220.68 5.38 220.92 5.50L220.92 5.50L220.92 5.50Q221.16 5.63 221.35 5.78L221.35 5.78L221.35 5.78Q221.55 5.92 221.62 6.05L221.62 6.05L221.62 6.05Q221.37 6.29 221.12 6.66L221.12 6.66L221.12 6.66Q220.86 7.04 220.62 7.53L220.62 7.53L220.62 7.53Q220.37 8.02 220.14 8.60L220.14 8.60L220.14 8.60Q219.90 9.17 219.69 9.79L219.69 9.79L219.69 9.79Q219.97 10.04 219.97 10.42L219.97 10.42L219.97 10.42Q219.97 10.68 219.86 10.91L219.86 10.91L219.86 10.91Q219.73 10.88 219.60 10.87L219.60 10.87L219.60 10.87Q219.48 10.86 219.34 10.85L219.34 10.85L219.34 10.85Q219.10 11.61 218.90 12.35L218.90 12.35L218.90 12.35Q218.71 13.09 218.57 13.76L218.57 13.76L218.57 13.76Q218.44 14.43 218.37 14.99L218.37 14.99L218.37 14.99Q218.29 15.55 218.29 15.93L218.29 15.93L218.29 15.93Q218.29 16.07 218.30 16.16L218.30 16.16L218.30 16.16Q218.30 16.24 218.32 16.30L218.32 16.30L218.32 16.30Q218.01 16.28 217.87 16.19L217.87 16.19L217.87 16.19Q217.73 16.10 217.66 16.00L217.66 16.00L217.66 16.00Q217.59 15.89 217.53 15.79L217.53 15.79L217.53 15.79Q217.48 15.68 217.35 15.62L217.35 15.62L217.35 15.62Q217.25 15.58 217.17 15.43L217.17 15.43L217.17 15.43Q217.08 15.27 217.03 15.08L217.03 15.08L217.03 15.08Q216.97 14.88 216.94 14.69L216.94 14.69L216.94 14.69Q216.92 14.49 216.92 14.36ZM233.69 9.21L233.69 9.21L233.69 9.21Q234.15 9.21 234.41 9.46L234.41 9.46L234.41 9.46Q234.67 9.72 234.67 10.16L234.67 10.16L234.67 10.16Q234.67 10.28 234.65 10.39L234.65 10.39L234.65 10.39Q234.63 10.51 234.60 10.60L234.60 10.60L234.60 10.60Q234.42 10.57 234.19 10.55L234.19 10.55L234.19 10.55Q233.97 10.53 233.66 10.53L233.66 10.53L233.66 10.53Q233.06 10.53 232.44 10.63L232.44 10.63L232.44 10.63Q231.83 10.74 231.27 10.81L231.27 10.81L231.27 10.81Q230.94 11.55 230.68 12.24L230.68 12.24L230.68 12.24Q230.41 12.94 230.22 13.51L230.22 13.51L230.22 13.51Q230.03 14.08 229.93 14.50L229.93 14.50L229.93 14.50Q229.82 14.92 229.81 15.13L229.81 15.13L229.81 15.13Q230.94 14.90 232.10 14.73L232.10 14.73L232.10 14.73Q233.25 14.56 234.53 14.48L234.53 14.48L234.53 14.48Q234.68 14.71 234.79 14.99L234.79 14.99L234.79 14.99Q234.89 15.27 234.89 15.60L234.89 15.60L234.89 15.60Q234.89 15.68 234.89 15.78L234.89 15.78L234.89 15.78Q234.89 15.88 234.86 15.97L234.86 15.97L234.86 15.97Q234.47 15.96 234.04 15.95L234.04 15.95L234.04 15.95Q233.60 15.95 232.90 15.95L232.90 15.95L232.90 15.95Q232.44 15.95 232.03 15.97L232.03 15.97L232.03 15.97Q231.62 15.99 231.20 16.03L231.20 16.03L231.20 16.03Q230.78 16.07 230.31 16.14L230.31 16.14L230.31 16.14Q229.84 16.21 229.25 16.31L229.25 16.31L229.25 16.31Q228.61 16.06 228.00 15.08L228.00 15.08L228.00 15.08Q228.24 14.57 228.67 13.54L228.67 13.54L228.67 13.54Q229.10 12.52 229.75 10.79L229.75 10.79L229.75 10.79Q229.12 10.60 228.93 10.09L228.93 10.09L228.93 10.09Q229.00 10.02 229.33 9.92L229.33 9.92L229.33 9.92Q229.67 9.81 230.16 9.70L230.16 9.70L230.16 9.70Q230.37 9.16 230.52 8.75L230.52 8.75L230.52 8.75Q230.66 8.34 230.78 7.99L230.78 7.99L230.78 7.99Q230.89 7.63 230.98 7.29L230.98 7.29L230.98 7.29Q231.07 6.94 231.15 6.54L231.15 6.54L231.15 6.54Q230.66 6.51 230.38 6.27L230.38 6.27L230.38 6.27Q230.10 6.02 230.10 5.63L230.10 5.63L230.10 5.63Q230.10 5.52 230.14 5.36L230.14 5.36L230.14 5.36Q230.17 5.21 230.22 5.10L230.22 5.10L230.22 5.10Q230.50 5.14 230.75 5.15L230.75 5.15L230.75 5.15Q231.01 5.17 231.43 5.17L231.43 5.17L231.43 5.17Q232.32 5.17 233.09 5.12L233.09 5.12L233.09 5.12Q233.86 5.07 234.48 5.01L234.48 5.01L234.48 5.01Q235.10 4.96 235.55 4.91L235.55 4.91L235.55 4.91Q236.00 4.86 236.24 4.86L236.24 4.86L236.24 4.86Q236.56 4.86 236.81 5.19L236.81 5.19L236.81 5.19Q237.06 5.53 237.19 6.15L237.19 6.15L237.19 6.15Q236.75 6.10 236.48 6.09L236.48 6.09L236.48 6.09Q236.21 6.08 236.00 6.08L236.00 6.08L236.00 6.08Q235.23 6.08 234.59 6.15L234.59 6.15L234.59 6.15Q233.95 6.23 233.37 6.31L233.37 6.31L233.37 6.31Q233.28 6.44 233.18 6.64L233.18 6.64L233.18 6.64Q233.07 6.83 232.90 7.18L232.90 7.18L232.90 7.18Q232.74 7.53 232.49 8.06L232.49 8.06L232.49 8.06Q232.25 8.60 231.90 9.39L231.90 9.39L231.90 9.39Q232.43 9.31 232.90 9.26L232.90 9.26L232.90 9.26Q233.37 9.21 233.69 9.21ZM254.34 12.43L254.34 12.43L254.34 12.43Q254.34 11.45 254.57 10.51L254.57 10.51L254.57 10.51Q254.80 9.56 255.22 8.71L255.22 8.71L255.22 8.71Q255.64 7.87 256.22 7.16L256.22 7.16L256.22 7.16Q256.80 6.45 257.50 5.94L257.50 5.94L257.50 5.94Q258.19 5.42 258.97 5.13L258.97 5.13L258.97 5.13Q259.76 4.84 260.58 4.84L260.58 4.84L260.58 4.84Q261.55 4.84 262.09 5.25L262.09 5.25L262.09 5.25Q262.63 5.66 262.63 6.38L262.63 6.38L262.63 6.38Q262.63 6.66 262.55 6.96L262.55 6.96L262.55 6.96Q262.47 7.25 262.32 7.54L262.32 7.54L262.32 7.54Q262.18 7.83 261.98 8.09L261.98 8.09L261.98 8.09Q261.79 8.36 261.55 8.55L261.55 8.55L261.55 8.55Q261.18 8.50 260.92 8.22L260.92 8.22L260.92 8.22Q260.65 7.95 260.58 7.59L260.58 7.59L260.58 7.59Q261.07 7.18 261.36 6.74L261.36 6.74L261.36 6.74Q261.65 6.30 261.65 5.94L261.65 5.94L261.65 5.94Q261.65 5.32 260.88 5.32L260.88 5.32L260.88 5.32Q260.55 5.32 260.21 5.45L260.21 5.45L260.21 5.45Q259.87 5.59 259.52 5.82L259.52 5.82L259.52 5.82Q259.17 6.06 258.84 6.40L258.84 6.40L258.84 6.40Q258.51 6.73 258.23 7.14L258.23 7.14L258.23 7.14Q256.28 9.94 256.28 12.87L256.28 12.87L256.28 12.87Q256.28 13.90 256.61 14.53L256.61 14.53L256.61 14.53Q256.93 15.16 257.46 15.27L257.46 15.27L257.46 15.27Q258.06 15.13 258.99 14.50L258.99 14.50L258.99 14.50Q259.91 13.87 261.00 12.87L261.00 12.87L261.00 12.87Q261.14 13.01 261.17 13.16L261.17 13.16L261.17 13.16Q260.76 13.69 260.33 14.18L260.33 14.18L260.33 14.18Q259.90 14.67 259.47 15.08L259.47 15.08L259.47 15.08Q259.04 15.48 258.63 15.79L258.63 15.79L258.63 15.79Q258.22 16.10 257.87 16.27L257.87 16.27L257.87 16.27Q256.13 16.24 255.23 15.27L255.23 15.27L255.23 15.27Q254.34 14.31 254.34 12.43ZM274.43 14.38L274.43 14.38L274.43 14.38Q274.78 14.98 274.78 15.54L274.78 15.54L274.78 15.54Q274.78 15.67 274.76 15.77L274.76 15.77L274.76 15.77Q274.74 15.88 274.71 15.99L274.71 15.99L274.71 15.99Q274.47 15.96 274.21 15.95L274.21 15.95L274.21 15.95Q273.95 15.93 273.67 15.93L273.67 15.93L273.67 15.93Q273.34 15.93 272.99 15.95L272.99 15.95L272.99 15.95Q272.65 15.97 272.23 16.02L272.23 16.02L272.23 16.02Q271.81 16.06 271.29 16.13L271.29 16.13L271.29 16.13Q270.77 16.20 270.09 16.31L270.09 16.31L270.09 16.31Q269.77 16.20 269.44 15.87L269.44 15.87L269.44 15.87Q269.12 15.54 268.84 15.08L268.84 15.08L268.84 15.08Q268.98 14.77 269.19 14.31L269.19 14.31L269.19 14.31Q269.40 13.86 269.68 13.21L269.68 13.21L269.68 13.21Q269.96 12.56 270.31 11.68L270.31 11.68L270.31 11.68Q270.65 10.81 271.04 9.66L271.04 9.66L271.04 9.66Q271.29 8.90 271.47 8.33L271.47 8.33L271.47 8.33Q271.66 7.76 271.80 7.22L271.80 7.22L271.80 7.22Q271.95 6.68 272.09 6.09L272.09 6.09L272.09 6.09Q272.23 5.50 272.40 4.73L272.40 4.73L272.40 4.73Q272.96 4.84 273.37 5.14L273.37 5.14L273.37 5.14Q273.78 5.45 274.16 6.01L274.16 6.01L274.16 6.01Q274.05 6.19 273.87 6.59L273.87 6.59L273.87 6.59Q273.69 7 273.44 7.58L273.44 7.58L273.44 7.58Q273.20 8.16 272.90 8.90L272.90 8.90L272.90 8.90Q272.61 9.63 272.29 10.47L272.29 10.47L272.29 10.47Q271.98 11.30 271.68 12.03L271.68 12.03L271.68 12.03Q271.39 12.75 271.16 13.34L271.16 13.34L271.16 13.34Q270.93 13.93 270.79 14.35L270.79 14.35L270.79 14.35Q270.65 14.77 270.65 14.98L270.65 14.98L270.65 14.98Q270.87 14.97 271.05 14.95L271.05 14.95L271.05 14.95Q271.24 14.94 271.43 14.90L271.43 14.90L271.43 14.90Q271.63 14.87 271.86 14.82L271.86 14.82L271.86 14.82Q272.09 14.77 272.41 14.69L272.41 14.69L272.41 14.69Q272.69 14.62 272.93 14.57L272.93 14.57L272.93 14.57Q273.17 14.52 273.40 14.48L273.40 14.48L273.40 14.48Q273.63 14.45 273.88 14.43L273.88 14.43L273.88 14.43Q274.12 14.41 274.43 14.38ZM287.95 5.75L287.95 5.75L287.95 5.75Q287.34 6.58 286.83 7.57L286.83 7.57L286.83 7.57Q286.33 8.57 285.97 9.61L285.97 9.61L285.97 9.61Q285.61 10.65 285.42 11.67L285.42 11.67L285.42 11.67Q285.24 12.68 285.24 13.57L285.24 13.57L285.24 13.57Q285.24 14.66 285.56 15.15L285.56 15.15L285.56 15.15Q285.88 15.64 286.66 15.64L286.66 15.64L286.66 15.64Q287.57 15.64 288.26 15.00L288.26 15.00L288.26 15.00Q288.95 14.36 289.55 13.24L289.55 13.24L289.55 13.24Q289.94 12.52 290.22 11.65L290.22 11.65L290.22 11.65Q290.50 10.78 290.67 9.86L290.67 9.86L290.67 9.86Q290.85 8.95 290.93 8.02L290.93 8.02L290.93 8.02Q291.02 7.08 291.02 6.23L291.02 6.23L291.02 6.23Q291.02 5.68 291.00 5.43L291.00 5.43L291.00 5.43Q290.99 5.18 290.96 5.03L290.96 5.03L290.96 5.03Q291.00 5.03 291.17 5.05L291.17 5.05L291.17 5.05Q291.34 5.08 291.56 5.12L291.56 5.12L291.56 5.12Q291.77 5.17 291.99 5.24L291.99 5.24L291.99 5.24Q292.21 5.31 292.36 5.39L292.36 5.39L292.36 5.39Q292.29 6.45 292.10 7.59L292.10 7.59L292.10 7.59Q291.91 8.72 291.61 9.83L291.61 9.83L291.61 9.83Q291.30 10.93 290.89 11.96L290.89 11.96L290.89 11.96Q290.49 12.98 289.98 13.79L289.98 13.79L289.98 13.79Q289.24 14.99 288.32 15.67L288.32 15.67L288.32 15.67Q287.39 16.35 286.13 16.35L286.13 16.35L286.13 16.35Q284.84 16.35 284.13 15.60L284.13 15.60L284.13 15.60Q283.42 14.85 283.42 13.33L283.42 13.33L283.42 13.33Q283.42 12.45 283.61 11.33L283.61 11.33L283.61 11.33Q283.81 10.22 284.14 9.07L284.14 9.07L284.14 9.07Q284.47 7.91 284.90 6.81L284.90 6.81L284.90 6.81Q285.33 5.71 285.81 4.84L285.81 4.84L285.81 4.84Q286.05 4.86 286.37 4.94L286.37 4.94L286.37 4.94Q286.69 5.03 287 5.16L287 5.16L287 5.16Q287.31 5.29 287.57 5.45L287.57 5.45L287.57 5.45Q287.83 5.61 287.95 5.75ZM301.99 6.69L301.99 6.69L301.99 6.69Q301.43 6.69 301.13 6.38L301.13 6.38L301.13 6.38Q300.83 6.06 300.83 5.61L300.83 5.61L300.83 5.61Q300.83 5.50 300.87 5.35L300.87 5.35L300.87 5.35Q300.90 5.19 300.96 5.08L300.96 5.08L300.96 5.08Q301.14 5.17 301.50 5.20L301.50 5.20L301.50 5.20Q301.85 5.24 302.33 5.24L302.33 5.24L302.33 5.24Q303.04 5.24 303.95 5.17L303.95 5.17L303.95 5.17Q304.85 5.11 305.68 5.04L305.68 5.04L305.68 5.04Q306.50 4.97 307.13 4.91L307.13 4.91L307.13 4.91Q307.76 4.84 307.94 4.84L307.94 4.84L307.94 4.84Q308.46 4.84 308.69 5.23L308.69 5.23L308.69 5.23Q308.92 5.61 309.04 6.26L309.04 6.26L309.04 6.26Q308.67 6.23 308.31 6.21L308.31 6.21L308.31 6.21Q307.96 6.19 307.71 6.19L307.71 6.19L307.71 6.19Q307.26 6.19 306.80 6.22L306.80 6.22L306.80 6.22Q306.35 6.24 305.89 6.30L305.89 6.30L305.89 6.30Q305.69 6.71 305.45 7.26L305.45 7.26L305.45 7.26Q305.21 7.81 304.98 8.41L304.98 8.41L304.98 8.41Q304.75 9.02 304.54 9.61L304.54 9.61L304.54 9.61Q304.33 10.21 304.18 10.68L304.18 10.68L304.18 10.68Q303.87 11.61 303.64 12.39L303.64 12.39L303.64 12.39Q303.41 13.17 303.23 13.85L303.23 13.85L303.23 13.85Q303.06 14.53 302.93 15.15L302.93 15.15L302.93 15.15Q302.81 15.76 302.71 16.35L302.71 16.35L302.71 16.35Q301.77 16.21 301.14 15.18L301.14 15.18L301.14 15.18Q301.25 14.74 301.41 14.23L301.41 14.23L301.41 14.23Q301.57 13.72 301.79 13.07L301.79 13.07L301.79 13.07Q302.01 12.42 302.30 11.59L302.30 11.59L302.30 11.59Q302.60 10.77 302.97 9.72L302.97 9.72L302.97 9.72Q303.11 9.32 303.27 8.90L303.27 8.90L303.27 8.90Q303.42 8.47 303.57 8.05L303.57 8.05L303.57 8.05Q303.72 7.63 303.83 7.24L303.83 7.24L303.83 7.24Q303.95 6.85 304.04 6.52L304.04 6.52L304.04 6.52Q303.45 6.59 302.92 6.64L302.92 6.64L302.92 6.64Q302.40 6.69 301.99 6.69ZM317.23 6.69L317.23 6.69L317.23 6.69Q316.67 6.69 316.36 6.38L316.36 6.38L316.36 6.38Q316.06 6.06 316.06 5.61L316.06 5.61L316.06 5.61Q316.06 5.50 316.10 5.35L316.10 5.35L316.10 5.35Q316.13 5.19 316.19 5.08L316.19 5.08L316.19 5.08Q316.37 5.17 316.73 5.20L316.73 5.20L316.73 5.20Q317.09 5.24 317.56 5.24L317.56 5.24L317.56 5.24Q318.28 5.24 319.18 5.17L319.18 5.17L319.18 5.17Q320.08 5.11 320.91 5.04L320.91 5.04L320.91 5.04Q321.73 4.97 322.36 4.91L322.36 4.91L322.36 4.91Q322.99 4.84 323.18 4.84L323.18 4.84L323.18 4.84Q323.69 4.84 323.92 5.23L323.92 5.23L323.92 5.23Q324.16 5.61 324.27 6.26L324.27 6.26L324.27 6.26Q323.90 6.23 323.55 6.21L323.55 6.21L323.55 6.21Q323.19 6.19 322.94 6.19L322.94 6.19L322.94 6.19Q322.49 6.19 322.03 6.22L322.03 6.22L322.03 6.22Q321.58 6.24 321.12 6.30L321.12 6.30L321.12 6.30Q320.92 6.71 320.68 7.26L320.68 7.26L320.68 7.26Q320.45 7.81 320.21 8.41L320.21 8.41L320.21 8.41Q319.98 9.02 319.77 9.61L319.77 9.61L319.77 9.61Q319.56 10.21 319.41 10.68L319.41 10.68L319.41 10.68Q319.10 11.61 318.87 12.39L318.87 12.39L318.87 12.39Q318.64 13.17 318.46 13.85L318.46 13.85L318.46 13.85Q318.29 14.53 318.16 15.15L318.16 15.15L318.16 15.15Q318.04 15.76 317.94 16.35L317.94 16.35L317.94 16.35Q317.00 16.21 316.37 15.18L316.37 15.18L316.37 15.18Q316.48 14.74 316.64 14.23L316.64 14.23L316.64 14.23Q316.81 13.72 317.02 13.07L317.02 13.07L317.02 13.07Q317.24 12.42 317.53 11.59L317.53 11.59L317.53 11.59Q317.83 10.77 318.21 9.72L318.21 9.72L318.21 9.72Q318.35 9.32 318.50 8.90L318.50 8.90L318.50 8.90Q318.65 8.47 318.80 8.05L318.80 8.05L318.80 8.05Q318.95 7.63 319.07 7.24L319.07 7.24L319.07 7.24Q319.19 6.85 319.27 6.52L319.27 6.52L319.27 6.52Q318.68 6.59 318.16 6.64L318.16 6.64L318.16 6.64Q317.63 6.69 317.23 6.69ZM335.47 9.21L335.47 9.21L335.47 9.21Q335.93 9.21 336.19 9.46L336.19 9.46L336.19 9.46Q336.45 9.72 336.45 10.16L336.45 10.16L336.45 10.16Q336.45 10.28 336.43 10.39L336.43 10.39L336.43 10.39Q336.41 10.51 336.38 10.60L336.38 10.60L336.38 10.60Q336.20 10.57 335.97 10.55L335.97 10.55L335.97 10.55Q335.75 10.53 335.44 10.53L335.44 10.53L335.44 10.53Q334.84 10.53 334.22 10.63L334.22 10.63L334.22 10.63Q333.61 10.74 333.05 10.81L333.05 10.81L333.05 10.81Q332.72 11.55 332.46 12.24L332.46 12.24L332.46 12.24Q332.19 12.94 332.00 13.51L332.00 13.51L332.00 13.51Q331.81 14.08 331.71 14.50L331.71 14.50L331.71 14.50Q331.60 14.92 331.59 15.13L331.59 15.13L331.59 15.13Q332.72 14.90 333.88 14.73L333.88 14.73L333.88 14.73Q335.03 14.56 336.31 14.48L336.31 14.48L336.31 14.48Q336.46 14.71 336.57 14.99L336.57 14.99L336.57 14.99Q336.67 15.27 336.67 15.60L336.67 15.60L336.67 15.60Q336.67 15.68 336.67 15.78L336.67 15.78L336.67 15.78Q336.67 15.88 336.64 15.97L336.64 15.97L336.64 15.97Q336.25 15.96 335.82 15.95L335.82 15.95L335.82 15.95Q335.38 15.95 334.68 15.95L334.68 15.95L334.68 15.95Q334.22 15.95 333.81 15.97L333.81 15.97L333.81 15.97Q333.40 15.99 332.98 16.03L332.98 16.03L332.98 16.03Q332.56 16.07 332.09 16.14L332.09 16.14L332.09 16.14Q331.62 16.21 331.03 16.31L331.03 16.31L331.03 16.31Q330.39 16.06 329.78 15.08L329.78 15.08L329.78 15.08Q330.02 14.57 330.45 13.54L330.45 13.54L330.45 13.54Q330.88 12.52 331.53 10.79L331.53 10.79L331.53 10.79Q330.90 10.60 330.71 10.09L330.71 10.09L330.71 10.09Q330.78 10.02 331.11 9.92L331.11 9.92L331.11 9.92Q331.45 9.81 331.94 9.70L331.94 9.70L331.94 9.70Q332.15 9.16 332.30 8.75L332.30 8.75L332.30 8.75Q332.44 8.34 332.56 7.99L332.56 7.99L332.56 7.99Q332.67 7.63 332.76 7.29L332.76 7.29L332.76 7.29Q332.85 6.94 332.93 6.54L332.93 6.54L332.93 6.54Q332.44 6.51 332.16 6.27L332.16 6.27L332.16 6.27Q331.88 6.02 331.88 5.63L331.88 5.63L331.88 5.63Q331.88 5.52 331.92 5.36L331.92 5.36L331.92 5.36Q331.95 5.21 332.00 5.10L332.00 5.10L332.00 5.10Q332.28 5.14 332.53 5.15L332.53 5.15L332.53 5.15Q332.79 5.17 333.21 5.17L333.21 5.17L333.21 5.17Q334.10 5.17 334.87 5.12L334.87 5.12L334.87 5.12Q335.64 5.07 336.26 5.01L336.26 5.01L336.26 5.01Q336.88 4.96 337.33 4.91L337.33 4.91L337.33 4.91Q337.78 4.86 338.02 4.86L338.02 4.86L338.02 4.86Q338.34 4.86 338.59 5.19L338.59 5.19L338.59 5.19Q338.84 5.53 338.97 6.15L338.97 6.15L338.97 6.15Q338.53 6.10 338.26 6.09L338.26 6.09L338.26 6.09Q337.99 6.08 337.78 6.08L337.78 6.08L337.78 6.08Q337.01 6.08 336.37 6.15L336.37 6.15L336.37 6.15Q335.73 6.23 335.15 6.31L335.15 6.31L335.15 6.31Q335.06 6.44 334.96 6.64L334.96 6.64L334.96 6.64Q334.85 6.83 334.68 7.18L334.68 7.18L334.68 7.18Q334.52 7.53 334.27 8.06L334.27 8.06L334.27 8.06Q334.03 8.60 333.68 9.39L333.68 9.39L333.68 9.39Q334.21 9.31 334.68 9.26L334.68 9.26L334.68 9.26Q335.15 9.21 335.47 9.21ZM354.73 7.46L354.73 7.46L354.73 7.46Q354.73 8.13 354.43 8.73L354.43 8.73L354.43 8.73Q354.13 9.32 353.60 9.79L353.60 9.79L353.60 9.79Q353.07 10.26 352.35 10.58L352.35 10.58L352.35 10.58Q351.64 10.91 350.80 11.02L350.80 11.02L350.80 11.02Q351.01 11.65 351.31 12.31L351.31 12.31L351.31 12.31Q351.61 12.98 351.96 13.59L351.96 13.59L351.96 13.59Q352.31 14.21 352.69 14.73L352.69 14.73L352.69 14.73Q353.07 15.25 353.43 15.58L353.43 15.58L353.43 15.58Q353.36 15.72 353.23 15.86L353.23 15.86L353.23 15.86Q353.09 16.00 352.92 16.12L352.92 16.12L352.92 16.12Q352.74 16.24 352.55 16.32L352.55 16.32L352.55 16.32Q352.37 16.39 352.20 16.39L352.20 16.39L352.20 16.39Q351.89 16.39 351.61 16.10L351.61 16.10L351.61 16.10Q351.33 15.81 351.04 15.17L351.04 15.17L351.04 15.17Q350.76 14.53 350.44 13.52L350.44 13.52L350.44 13.52Q350.13 12.50 349.75 11.07L349.75 11.07L349.75 11.07Q349.59 11.07 349.44 11.07L349.44 11.07L349.44 11.07Q349.29 11.07 349.20 11.05L349.20 11.05L349.20 11.05Q349.10 10.99 348.99 10.85L348.99 10.85L348.99 10.85Q348.61 11.66 348.32 12.38L348.32 12.38L348.32 12.38Q348.03 13.09 347.79 13.76L347.79 13.76L347.79 13.76Q347.56 14.42 347.39 15.04L347.39 15.04L347.39 15.04Q347.21 15.67 347.09 16.31L347.09 16.31L347.09 16.31Q346.61 16.20 346.26 15.90L346.26 15.90L346.26 15.90Q345.91 15.61 345.60 15.08L345.60 15.08L345.60 15.08Q345.66 14.95 345.72 14.83L345.72 14.83L345.72 14.83Q345.79 14.71 345.88 14.50L345.88 14.50L345.88 14.50Q345.98 14.28 346.13 13.94L346.13 13.94L346.13 13.94Q346.28 13.61 346.52 13.05L346.52 13.05L346.52 13.05Q346.77 12.49 347.11 11.68L347.11 11.68L347.11 11.68Q347.45 10.86 347.94 9.70L347.94 9.70L347.94 9.70Q348.17 9.18 348.33 8.79L348.33 8.79L348.33 8.79Q348.49 8.40 348.61 8.04L348.61 8.04L348.61 8.04Q348.74 7.69 348.84 7.33L348.84 7.33L348.84 7.33Q348.95 6.97 349.06 6.51L349.06 6.51L349.06 6.51Q348.42 6.73 347.86 7.01L347.86 7.01L347.86 7.01Q347.31 7.28 346.95 7.59L346.95 7.59L346.95 7.59Q346.82 7.50 346.69 7.34L346.69 7.34L346.69 7.34Q346.56 7.17 346.44 6.96L346.44 6.96L346.44 6.96Q346.33 6.76 346.25 6.55L346.25 6.55L346.25 6.55Q346.16 6.34 346.15 6.17L346.15 6.17L346.15 6.17Q346.57 5.89 347.18 5.66L347.18 5.66L347.18 5.66Q347.79 5.42 348.47 5.24L348.47 5.24L348.47 5.24Q349.16 5.07 349.87 4.97L349.87 4.97L349.87 4.97Q350.59 4.87 351.20 4.87L351.20 4.87L351.20 4.87Q352.88 4.87 353.81 5.56L353.81 5.56L353.81 5.56Q354.73 6.26 354.73 7.46ZM351.15 6.02L351.32 6.29L351.32 6.29Q351.22 6.41 351.01 6.79L351.01 6.79L351.01 6.79Q350.80 7.17 350.52 7.69L350.52 7.69L350.52 7.69Q350.25 8.22 349.95 8.83L349.95 8.83L349.95 8.83Q349.65 9.45 349.37 10.05L349.37 10.05L349.37 10.05Q350.42 10.05 351.30 9.86L351.30 9.86L351.30 9.86Q352.18 9.66 352.83 9.30L352.83 9.30L352.83 9.30Q353.47 8.95 353.83 8.46L353.83 8.46L353.83 8.46Q354.19 7.98 354.19 7.39L354.19 7.39L354.19 7.39Q354.19 6.69 353.68 6.32L353.68 6.32L353.68 6.32Q353.18 5.95 352.13 5.95L352.13 5.95L352.13 5.95Q351.89 5.95 351.65 5.97L351.65 5.97L351.65 5.97Q351.41 5.99 351.15 6.02L351.15 6.02ZM360.71 17.54L360.71 17.54L360.71 17.54Q360.63 17.47 360.56 17.31L360.56 17.31L360.56 17.31Q360.49 17.15 360.49 17.01L360.49 17.01L360.49 17.01Q361.19 16.41 361.49 15.86L361.49 15.86L361.49 15.86Q361.79 15.32 361.79 14.67L361.79 14.67L361.79 14.67Q361.79 14.25 361.75 13.95L361.75 13.95L361.75 13.95Q361.72 13.65 361.62 13.26L361.62 13.26L361.62 13.26Q361.97 13.29 362.31 13.38L362.31 13.38L362.31 13.38Q362.66 13.47 362.93 13.60L362.93 13.60L362.93 13.60Q363.20 13.73 363.38 13.91L363.38 13.91L363.38 13.91Q363.57 14.08 363.61 14.25L363.61 14.25L363.61 14.25Q362.95 16.58 360.71 17.54ZM391.71 5.74L391.71 5.74L391.71 5.74Q391.75 5.98 391.77 6.07L391.77 6.07L391.77 6.07Q391.79 6.16 391.79 6.31L391.79 6.31L391.79 6.31Q391.79 6.78 391.59 7.18L391.59 7.18L391.59 7.18Q391.38 7.57 391.03 7.74L391.03 7.74L391.03 7.74Q390.75 7.36 390.35 7.09L390.35 7.09L390.35 7.09Q389.94 6.82 389.46 6.64L389.46 6.64L389.46 6.64Q388.98 6.47 388.46 6.38L388.46 6.38L388.46 6.38Q387.94 6.30 387.45 6.30L387.45 6.30L387.45 6.30Q386.96 6.30 386.53 6.38L386.53 6.38L386.53 6.38Q386.11 6.45 385.78 6.59L385.78 6.59L385.78 6.59Q385.45 6.72 385.26 6.92L385.26 6.92L385.26 6.92Q385.07 7.11 385.07 7.36L385.07 7.36L385.07 7.36Q385.11 7.67 385.45 7.99L385.45 7.99L385.45 7.99Q385.78 8.30 386.27 8.60L386.27 8.60L386.27 8.60Q386.76 8.90 387.36 9.20L387.36 9.20L387.36 9.20Q387.95 9.49 388.53 9.76L388.53 9.76L388.53 9.76Q389.24 10.09 389.76 10.38L389.76 10.38L389.76 10.38Q390.28 10.67 390.61 11.01L390.61 11.01L390.61 11.01Q390.95 11.35 391.12 11.79L391.12 11.79L391.12 11.79Q391.29 12.22 391.29 12.84L391.29 12.84L391.29 12.84Q391.29 13.55 391.05 14.18L391.05 14.18L391.05 14.18Q390.81 14.80 390.35 15.26L390.35 15.26L390.35 15.26Q389.90 15.72 389.26 15.98L389.26 15.98L389.26 15.98Q388.61 16.24 387.81 16.24L387.81 16.24L387.81 16.24Q387.03 16.24 386.12 16.00L386.12 16.00L386.12 16.00Q385.21 15.76 384.42 15.35L384.42 15.35L384.42 15.35Q383.63 14.94 383.10 14.40L383.10 14.40L383.10 14.40Q382.58 13.86 382.58 13.26L382.58 13.26L382.58 13.26Q382.58 12.98 382.74 12.54L382.74 12.54L382.74 12.54Q382.90 12.11 383.32 11.63L383.32 11.63L383.32 11.63Q383.36 12.05 383.77 12.63L383.77 12.63L383.77 12.63Q384.19 13.20 385.01 13.69L385.01 13.69L385.01 13.69Q385.78 14.14 386.60 14.34L386.60 14.34L386.60 14.34Q387.42 14.55 388.14 14.55L388.14 14.55L388.14 14.55Q388.92 14.55 389.41 14.35L389.41 14.35L389.41 14.35Q389.90 14.15 390.18 13.88L390.18 13.88L390.18 13.88Q390.46 13.61 390.57 13.33L390.57 13.33L390.57 13.33Q390.68 13.05 390.70 12.88L390.70 12.88L390.70 12.88Q390.68 12.60 390.44 12.34L390.44 12.34L390.44 12.34Q390.19 12.08 389.78 11.84L389.78 11.84L389.78 11.84Q389.37 11.59 388.82 11.34L388.82 11.34L388.82 11.34Q388.28 11.09 387.69 10.84L387.69 10.84L387.69 10.84Q386.81 10.44 386.17 10.10L386.17 10.10L386.17 10.10Q385.53 9.76 385.12 9.40L385.12 9.40L385.12 9.40Q384.71 9.04 384.52 8.65L384.52 8.65L384.52 8.65Q384.33 8.26 384.33 7.76L384.33 7.76L384.33 7.76Q384.33 6.97 384.80 6.27L384.80 6.27L384.80 6.27Q385.28 5.57 386.18 5.21L386.18 5.21L386.18 5.21Q386.62 5.01 387.13 4.93L387.13 4.93L387.13 4.93Q387.65 4.84 388.14 4.84L388.14 4.84L388.14 4.84Q389.06 4.84 389.94 5.10L389.94 5.10L389.94 5.10Q390.82 5.35 391.71 5.74ZM404.87 14.36L404.87 14.36L404.87 14.36Q404.87 13.78 405.06 12.85L405.06 12.85L405.06 12.85Q405.26 11.93 405.58 10.88L405.58 10.88L405.58 10.88Q404.66 10.95 403.72 11.06L403.72 11.06L403.72 11.06Q402.79 11.17 402.11 11.19L402.11 11.19L402.11 11.19Q401.48 12.66 401.11 13.89L401.11 13.89L401.11 13.89Q400.74 15.13 400.53 16.31L400.53 16.31L400.53 16.31Q399.99 16.18 399.64 15.87L399.64 15.87L399.64 15.87Q399.29 15.55 399.00 15.08L399.00 15.08L399.00 15.08Q399.11 14.85 399.26 14.50L399.26 14.50L399.26 14.50Q399.41 14.15 399.61 13.66L399.61 13.66L399.61 13.66Q399.81 13.16 400.07 12.50L400.07 12.50L400.07 12.50Q400.33 11.83 400.67 10.95L400.67 10.95L400.67 10.95Q400.20 10.75 400.05 10.40L400.05 10.40L400.05 10.40Q400.12 10.35 400.36 10.28L400.36 10.28L400.36 10.28Q400.61 10.22 400.97 10.15L400.97 10.15L401.16 9.70L401.16 9.70Q401.45 8.95 401.64 8.43L401.64 8.43L401.64 8.43Q401.83 7.91 401.96 7.41L401.96 7.41L401.96 7.41Q402.09 6.92 402.21 6.31L402.21 6.31L402.21 6.31Q402.33 5.71 402.50 4.79L402.50 4.79L402.50 4.79Q403.09 4.90 403.57 5.31L403.57 5.31L403.57 5.31Q404.05 5.71 404.40 6.29L404.40 6.29L404.40 6.29Q404.28 6.45 404.10 6.79L404.10 6.79L404.10 6.79Q403.91 7.13 403.70 7.59L403.70 7.59L403.70 7.59Q403.48 8.06 403.23 8.64L403.23 8.64L403.23 8.64Q402.98 9.23 402.68 9.87L402.68 9.87L402.68 9.87Q403.55 9.76 404.44 9.66L404.44 9.66L404.44 9.66Q405.33 9.56 406.01 9.52L406.01 9.52L406.01 9.52Q406.27 8.79 406.54 8.10L406.54 8.10L406.54 8.10Q406.81 7.41 407.08 6.83L407.08 6.83L407.08 6.83Q407.34 6.26 407.59 5.82L407.59 5.82L407.59 5.82Q407.83 5.39 408.03 5.18L408.03 5.18L408.03 5.18Q408.17 5.19 408.40 5.29L408.40 5.29L408.40 5.29Q408.63 5.38 408.87 5.50L408.87 5.50L408.87 5.50Q409.11 5.63 409.30 5.78L409.30 5.78L409.30 5.78Q409.50 5.92 409.57 6.05L409.57 6.05L409.57 6.05Q409.32 6.29 409.07 6.66L409.07 6.66L409.07 6.66Q408.81 7.04 408.57 7.53L408.57 7.53L408.57 7.53Q408.32 8.02 408.09 8.60L408.09 8.60L408.09 8.60Q407.85 9.17 407.64 9.79L407.64 9.79L407.64 9.79Q407.92 10.04 407.92 10.42L407.92 10.42L407.92 10.42Q407.92 10.68 407.81 10.91L407.81 10.91L407.81 10.91Q407.68 10.88 407.55 10.87L407.55 10.87L407.55 10.87Q407.43 10.86 407.29 10.85L407.29 10.85L407.29 10.85Q407.05 11.61 406.85 12.35L406.85 12.35L406.85 12.35Q406.66 13.09 406.52 13.76L406.52 13.76L406.52 13.76Q406.39 14.43 406.31 14.99L406.31 14.99L406.31 14.99Q406.24 15.55 406.24 15.93L406.24 15.93L406.24 15.93Q406.24 16.07 406.24 16.16L406.24 16.16L406.24 16.16Q406.25 16.24 406.27 16.30L406.27 16.30L406.27 16.30Q405.96 16.28 405.82 16.19L405.82 16.19L405.82 16.19Q405.68 16.10 405.61 16.00L405.61 16.00L405.61 16.00Q405.54 15.89 405.48 15.79L405.48 15.79L405.48 15.79Q405.43 15.68 405.30 15.62L405.30 15.62L405.30 15.62Q405.20 15.58 405.12 15.43L405.12 15.43L405.12 15.43Q405.03 15.27 404.98 15.08L404.98 15.08L404.98 15.08Q404.92 14.88 404.89 14.69L404.89 14.69L404.89 14.69Q404.87 14.49 404.87 14.36ZM416.49 16.24L416.49 16.24L416.49 16.24Q415.81 16.04 415.55 15.85L415.55 15.85L415.55 15.85Q415.30 15.65 415.30 15.36L415.30 15.36L415.30 15.36Q415.30 15.13 415.42 14.73L415.42 14.73L415.42 14.73Q415.55 14.32 415.79 13.77L415.79 13.77L415.79 13.77Q416.04 13.22 416.38 12.54L416.38 12.54L416.38 12.54Q416.72 11.87 417.16 11.10L417.16 11.10L417.16 11.10Q416.79 11.09 416.51 11.08L416.51 11.08L416.51 11.08Q416.22 11.07 416.04 11.07L416.04 11.07L416.04 11.07Q416.12 10.86 416.51 10.71L416.51 10.71L416.51 10.71Q416.91 10.56 417.55 10.44L417.55 10.44L417.55 10.44Q418.10 9.53 418.72 8.71L418.72 8.71L418.72 8.71Q419.34 7.88 419.97 7.19L419.97 7.19L419.97 7.19Q420.60 6.50 421.23 5.97L421.23 5.97L421.23 5.97Q421.86 5.45 422.44 5.14L422.44 5.14L422.44 5.14Q422.45 5.04 422.46 4.97L422.46 4.97L422.46 4.97Q422.46 4.90 422.46 4.87L422.46 4.87L422.46 4.87Q422.66 4.87 422.99 4.97L422.99 4.97L422.99 4.97Q423.32 5.07 423.63 5.21L423.63 5.21L423.63 5.21Q423.95 5.35 424.19 5.49L424.19 5.49L424.19 5.49Q424.44 5.64 424.47 5.74L424.47 5.74L424.47 5.74Q424.00 6.55 423.56 8.17L423.56 8.17L423.56 8.17Q423.11 9.79 422.81 12.04L422.81 12.04L422.81 12.04Q422.74 12.60 422.69 13.31L422.69 13.31L422.69 13.31Q422.65 14.03 422.65 14.91L422.65 14.91L422.65 14.91Q422.65 15.22 422.65 15.54L422.65 15.54L422.65 15.54Q422.65 15.86 422.67 16.21L422.67 16.21L422.67 16.21Q422.65 16.23 422.62 16.23L422.62 16.23L422.62 16.23Q422.59 16.23 422.51 16.23L422.51 16.23L422.51 16.23Q422.31 16.23 422.05 16.16L422.05 16.16L422.05 16.16Q421.79 16.10 421.55 16.01L421.55 16.01L421.55 16.01Q421.30 15.92 421.13 15.81L421.13 15.81L421.13 15.81Q420.95 15.69 420.91 15.61L420.91 15.61L420.91 15.61Q420.90 15.43 420.90 15.25L420.90 15.25L420.90 15.25Q420.90 15.08 420.90 14.88L420.90 14.88L420.90 14.88Q420.90 14.01 420.96 13.12L420.96 13.12L420.96 13.12Q421.02 12.22 421.18 11.27L421.18 11.27L421.18 11.27Q420.98 11.26 420.66 11.23L420.66 11.23L420.66 11.23Q420.34 11.21 419.94 11.20L419.94 11.20L419.94 11.20Q419.54 11.19 419.08 11.16L419.08 11.16L419.08 11.16Q418.63 11.14 418.19 11.13L418.19 11.13L418.19 11.13Q417.86 11.76 417.56 12.38L417.56 12.38L417.56 12.38Q417.27 13.01 417.06 13.64L417.06 13.64L417.06 13.64Q416.82 14.31 416.67 14.98L416.67 14.98L416.67 14.98Q416.53 15.65 416.49 16.24ZM421.89 7.83L421.89 7.83L421.89 7.83Q421.95 7.63 422.02 7.29L422.02 7.29L422.02 7.29Q422.10 6.94 422.17 6.57L422.17 6.57L422.17 6.57Q421.82 6.69 421.39 7.03L421.39 7.03L421.39 7.03Q420.97 7.36 420.51 7.86L420.51 7.86L420.51 7.86Q420.06 8.36 419.59 8.98L419.59 8.98L419.59 8.98Q419.12 9.60 418.68 10.30L418.68 10.30L418.68 10.30Q419.86 10.21 421.36 10.18L421.36 10.18L421.36 10.18Q421.47 9.59 421.60 9.01L421.60 9.01L421.60 9.01Q421.74 8.43 421.89 7.83ZM441.36 7.46L441.36 7.46L441.36 7.46Q441.36 8.13 441.06 8.73L441.06 8.73L441.06 8.73Q440.76 9.32 440.23 9.79L440.23 9.79L440.23 9.79Q439.70 10.26 438.98 10.58L438.98 10.58L438.98 10.58Q438.27 10.91 437.43 11.02L437.43 11.02L437.43 11.02Q437.64 11.65 437.94 12.31L437.94 12.31L437.94 12.31Q438.24 12.98 438.59 13.59L438.59 13.59L438.59 13.59Q438.94 14.21 439.32 14.73L439.32 14.73L439.32 14.73Q439.70 15.25 440.06 15.58L440.06 15.58L440.06 15.58Q439.99 15.72 439.86 15.86L439.86 15.86L439.86 15.86Q439.73 16.00 439.55 16.12L439.55 16.12L439.55 16.12Q439.38 16.24 439.19 16.32L439.19 16.32L439.19 16.32Q439.00 16.39 438.83 16.39L438.83 16.39L438.83 16.39Q438.52 16.39 438.24 16.10L438.24 16.10L438.24 16.10Q437.96 15.81 437.67 15.17L437.67 15.17L437.67 15.17Q437.39 14.53 437.07 13.52L437.07 13.52L437.07 13.52Q436.76 12.50 436.38 11.07L436.38 11.07L436.38 11.07Q436.23 11.07 436.07 11.07L436.07 11.07L436.07 11.07Q435.92 11.07 435.83 11.05L435.83 11.05L435.83 11.05Q435.74 10.99 435.62 10.85L435.62 10.85L435.62 10.85Q435.25 11.66 434.95 12.38L434.95 12.38L434.95 12.38Q434.66 13.09 434.43 13.76L434.43 13.76L434.43 13.76Q434.20 14.42 434.02 15.04L434.02 15.04L434.02 15.04Q433.85 15.67 433.72 16.31L433.72 16.31L433.72 16.31Q433.24 16.20 432.89 15.90L432.89 15.90L432.89 15.90Q432.54 15.61 432.24 15.08L432.24 15.08L432.24 15.08Q432.29 14.95 432.35 14.83L432.35 14.83L432.35 14.83Q432.42 14.71 432.52 14.50L432.52 14.50L432.52 14.50Q432.61 14.28 432.76 13.94L432.76 13.94L432.76 13.94Q432.91 13.61 433.15 13.05L433.15 13.05L433.15 13.05Q433.40 12.49 433.74 11.68L433.74 11.68L433.74 11.68Q434.08 10.86 434.57 9.70L434.57 9.70L434.57 9.70Q434.80 9.18 434.96 8.79L434.96 8.79L434.96 8.79Q435.12 8.40 435.25 8.04L435.25 8.04L435.25 8.04Q435.37 7.69 435.48 7.33L435.48 7.33L435.48 7.33Q435.58 6.97 435.69 6.51L435.69 6.51L435.69 6.51Q435.05 6.73 434.50 7.01L434.50 7.01L434.50 7.01Q433.94 7.28 433.58 7.59L433.58 7.59L433.58 7.59Q433.45 7.50 433.32 7.34L433.32 7.34L433.32 7.34Q433.19 7.17 433.08 6.96L433.08 6.96L433.08 6.96Q432.96 6.76 432.88 6.55L432.88 6.55L432.88 6.55Q432.80 6.34 432.78 6.17L432.78 6.17L432.78 6.17Q433.20 5.89 433.81 5.66L433.81 5.66L433.81 5.66Q434.42 5.42 435.11 5.24L435.11 5.24L435.11 5.24Q435.79 5.07 436.51 4.97L436.51 4.97L436.51 4.97Q437.22 4.87 437.84 4.87L437.84 4.87L437.84 4.87Q439.52 4.87 440.44 5.56L440.44 5.56L440.44 5.56Q441.36 6.26 441.36 7.46ZM437.78 6.02L437.95 6.29L437.95 6.29Q437.85 6.41 437.64 6.79L437.64 6.79L437.64 6.79Q437.43 7.17 437.16 7.69L437.16 7.69L437.16 7.69Q436.88 8.22 436.58 8.83L436.58 8.83L436.58 8.83Q436.28 9.45 436.00 10.05L436.00 10.05L436.00 10.05Q437.05 10.05 437.93 9.86L437.93 9.86L437.93 9.86Q438.82 9.66 439.46 9.30L439.46 9.30L439.46 9.30Q440.10 8.95 440.46 8.46L440.46 8.46L440.46 8.46Q440.82 7.98 440.82 7.39L440.82 7.39L440.82 7.39Q440.82 6.69 440.31 6.32L440.31 6.32L440.31 6.32Q439.81 5.95 438.76 5.95L438.76 5.95L438.76 5.95Q438.52 5.95 438.28 5.97L438.28 5.97L438.28 5.97Q438.05 5.99 437.78 6.02L437.78 6.02ZM454.19 9.21L454.19 9.21L454.19 9.21Q454.65 9.21 454.91 9.46L454.91 9.46L454.91 9.46Q455.17 9.72 455.17 10.16L455.17 10.16L455.17 10.16Q455.17 10.28 455.15 10.39L455.15 10.39L455.15 10.39Q455.13 10.51 455.10 10.60L455.10 10.60L455.10 10.60Q454.92 10.57 454.69 10.55L454.69 10.55L454.69 10.55Q454.47 10.53 454.16 10.53L454.16 10.53L454.16 10.53Q453.56 10.53 452.94 10.63L452.94 10.63L452.94 10.63Q452.33 10.74 451.77 10.81L451.77 10.81L451.77 10.81Q451.44 11.55 451.18 12.24L451.18 12.24L451.18 12.24Q450.91 12.94 450.72 13.51L450.72 13.51L450.72 13.51Q450.53 14.08 450.43 14.50L450.43 14.50L450.43 14.50Q450.32 14.92 450.31 15.13L450.31 15.13L450.31 15.13Q451.44 14.90 452.60 14.73L452.60 14.73L452.60 14.73Q453.75 14.56 455.03 14.48L455.03 14.48L455.03 14.48Q455.18 14.71 455.29 14.99L455.29 14.99L455.29 14.99Q455.39 15.27 455.39 15.60L455.39 15.60L455.39 15.60Q455.39 15.68 455.39 15.78L455.39 15.78L455.39 15.78Q455.39 15.88 455.36 15.97L455.36 15.97L455.36 15.97Q454.97 15.96 454.54 15.95L454.54 15.95L454.54 15.95Q454.10 15.95 453.40 15.95L453.40 15.95L453.40 15.95Q452.94 15.95 452.53 15.97L452.53 15.97L452.53 15.97Q452.12 15.99 451.70 16.03L451.70 16.03L451.70 16.03Q451.28 16.07 450.81 16.14L450.81 16.14L450.81 16.14Q450.34 16.21 449.75 16.31L449.75 16.31L449.75 16.31Q449.11 16.06 448.50 15.08L448.50 15.08L448.50 15.08Q448.74 14.57 449.17 13.54L449.17 13.54L449.17 13.54Q449.60 12.52 450.25 10.79L450.25 10.79L450.25 10.79Q449.62 10.60 449.43 10.09L449.43 10.09L449.43 10.09Q449.50 10.02 449.83 9.92L449.83 9.92L449.83 9.92Q450.17 9.81 450.66 9.70L450.66 9.70L450.66 9.70Q450.87 9.16 451.02 8.75L451.02 8.75L451.02 8.75Q451.16 8.34 451.28 7.99L451.28 7.99L451.28 7.99Q451.39 7.63 451.48 7.29L451.48 7.29L451.48 7.29Q451.57 6.94 451.65 6.54L451.65 6.54L451.65 6.54Q451.16 6.51 450.88 6.27L450.88 6.27L450.88 6.27Q450.60 6.02 450.60 5.63L450.60 5.63L450.60 5.63Q450.60 5.52 450.64 5.36L450.64 5.36L450.64 5.36Q450.67 5.21 450.72 5.10L450.72 5.10L450.72 5.10Q451.00 5.14 451.25 5.15L451.25 5.15L451.25 5.15Q451.51 5.17 451.93 5.17L451.93 5.17L451.93 5.17Q452.82 5.17 453.59 5.12L453.59 5.12L453.59 5.12Q454.36 5.07 454.98 5.01L454.98 5.01L454.98 5.01Q455.60 4.96 456.05 4.91L456.05 4.91L456.05 4.91Q456.50 4.86 456.74 4.86L456.74 4.86L456.74 4.86Q457.06 4.86 457.31 5.19L457.31 5.19L457.31 5.19Q457.56 5.53 457.69 6.15L457.69 6.15L457.69 6.15Q457.25 6.10 456.98 6.09L456.98 6.09L456.98 6.09Q456.71 6.08 456.50 6.08L456.50 6.08L456.50 6.08Q455.73 6.08 455.09 6.15L455.09 6.15L455.09 6.15Q454.45 6.23 453.87 6.31L453.87 6.31L453.87 6.31Q453.78 6.44 453.68 6.64L453.68 6.64L453.68 6.64Q453.57 6.83 453.40 7.18L453.40 7.18L453.40 7.18Q453.24 7.53 452.99 8.06L452.99 8.06L452.99 8.06Q452.75 8.60 452.40 9.39L452.40 9.39L452.40 9.39Q452.93 9.31 453.40 9.26L453.40 9.26L453.40 9.26Q453.87 9.21 454.19 9.21ZM476.06 15.61L476.06 15.61L476.06 15.61Q475.99 15.04 475.95 14.36L475.95 14.36L475.95 14.36Q475.92 13.68 475.92 13.09L475.92 13.09L475.92 13.09Q475.92 12.15 475.98 11.29L475.98 11.29L475.98 11.29Q476.04 10.43 476.13 9.48L476.13 9.48L476.13 9.48Q476.22 8.54 476.34 7.43L476.34 7.43L476.34 7.43Q476.45 6.31 476.53 4.86L476.53 4.86L476.53 4.86Q476.71 4.86 477.06 4.96L477.06 4.96L477.06 4.96Q477.40 5.07 477.75 5.21L477.75 5.21L477.75 5.21Q478.10 5.35 478.37 5.49L478.37 5.49L478.37 5.49Q478.63 5.64 478.67 5.74L478.67 5.74L478.67 5.74Q478.44 6.29 478.25 7.18L478.25 7.18L478.25 7.18Q478.06 8.06 477.93 9.11L477.93 9.11L477.93 9.11Q477.81 10.16 477.74 11.27L477.74 11.27L477.74 11.27Q477.67 12.38 477.67 13.34L477.67 13.34L477.67 13.34Q477.67 13.79 477.68 14.22L477.68 14.22L477.68 14.22Q477.69 14.66 477.72 15.02L477.72 15.02L477.72 15.02Q478.02 14.59 478.40 13.78L478.40 13.78L478.40 13.78Q478.79 12.98 479.20 11.98L479.20 11.98L479.20 11.98Q479.61 10.99 480.02 9.91L480.02 9.91L480.02 9.91Q480.44 8.82 480.79 7.83L480.79 7.83L480.79 7.83Q481.14 6.85 481.38 6.05L481.38 6.05L481.38 6.05Q481.63 5.26 481.73 4.86L481.73 4.86L481.73 4.86Q481.91 4.86 482.26 4.96L482.26 4.96L482.26 4.96Q482.62 5.07 482.96 5.21L482.96 5.21L482.96 5.21Q483.31 5.35 483.57 5.49L483.57 5.49L483.57 5.49Q483.84 5.64 483.87 5.74L483.87 5.74L483.87 5.74Q483.63 6.29 483.44 7.18L483.44 7.18L483.44 7.18Q483.25 8.06 483.13 9.11L483.13 9.11L483.13 9.11Q483.00 10.16 482.93 11.27L482.93 11.27L482.93 11.27Q482.86 12.38 482.86 13.34L482.86 13.34L482.86 13.34Q482.86 13.75 482.87 14.15L482.87 14.15L482.87 14.15Q482.87 14.55 482.90 14.87L482.90 14.87L482.90 14.87Q483.35 13.71 483.83 12.56L483.83 12.56L483.83 12.56Q484.32 11.42 484.79 10.38L484.79 10.38L484.79 10.38Q485.27 9.34 485.72 8.43L485.72 8.43L485.72 8.43Q486.16 7.53 486.54 6.82L486.54 6.82L486.54 6.82Q486.92 6.12 487.20 5.66L487.20 5.66L487.20 5.66Q487.48 5.19 487.63 5.04L487.63 5.04L487.63 5.04Q487.96 5.08 488.30 5.27L488.30 5.27L488.30 5.27Q488.64 5.46 488.91 5.75L488.91 5.75L488.91 5.75Q488.50 6.08 487.98 6.81L487.98 6.81L487.98 6.81Q487.47 7.55 486.92 8.51L486.92 8.51L486.92 8.51Q486.37 9.48 485.82 10.57L485.82 10.57L485.82 10.57Q485.27 11.66 484.79 12.70L484.79 12.70L484.79 12.70Q484.32 13.73 483.94 14.63L483.94 14.63L483.94 14.63Q483.57 15.53 483.38 16.07L483.38 16.07L483.38 16.07Q483.01 16.24 482.66 16.24L482.66 16.24L482.66 16.24Q482.22 16.18 481.82 16.02L481.82 16.02L481.82 16.02Q481.42 15.85 481.25 15.61L481.25 15.61L481.25 15.61Q481.21 15.39 481.18 15.09L481.18 15.09L481.18 15.09Q481.15 14.78 481.14 14.49L481.14 14.49L481.14 14.49Q481.12 14.20 481.12 13.92L481.12 13.92L481.12 13.92Q481.11 13.65 481.11 13.45L481.11 13.45L481.11 13.45Q481.11 12.21 481.21 10.91L481.21 10.91L481.21 10.91Q481.31 9.62 481.45 8.13L481.45 8.13L481.45 8.13Q481.12 9.09 480.73 10.18L480.73 10.18L480.73 10.18Q480.34 11.27 479.91 12.34L479.91 12.34L479.91 12.34Q479.49 13.41 479.04 14.38L479.04 14.38L479.04 14.38Q478.60 15.36 478.18 16.07L478.18 16.07L478.18 16.07Q477.82 16.24 477.47 16.24L477.47 16.24L477.47 16.24Q477.02 16.18 476.62 16.02L476.62 16.02L476.62 16.02Q476.22 15.85 476.06 15.61ZM495.03 14.38L495.03 14.38L495.03 14.38Q495.03 13.87 495.19 13.07L495.19 13.07L495.19 13.07Q495.35 12.26 495.61 11.33L495.61 11.33L495.61 11.33Q495.87 10.40 496.20 9.43L496.20 9.43L496.20 9.43Q496.54 8.46 496.89 7.60L496.89 7.60L496.89 7.60Q497.24 6.75 497.57 6.10L497.57 6.10L497.57 6.10Q497.91 5.46 498.18 5.18L498.18 5.18L498.18 5.18Q498.32 5.19 498.55 5.29L498.55 5.29L498.55 5.29Q498.78 5.38 499.02 5.50L499.02 5.50L499.02 5.50Q499.25 5.63 499.45 5.78L499.45 5.78L499.45 5.78Q499.65 5.92 499.70 6.05L499.70 6.05L499.70 6.05Q499.30 6.41 498.90 7.15L498.90 7.15L498.90 7.15Q498.50 7.88 498.13 8.82L498.13 8.82L498.13 8.82Q497.76 9.76 497.43 10.80L497.43 10.80L497.43 10.80Q497.11 11.84 496.87 12.82L496.87 12.82L496.87 12.82Q496.64 13.80 496.50 14.64L496.50 14.64L496.50 14.64Q496.37 15.48 496.37 16.00L496.37 16.00L496.37 16.00Q496.37 16.24 496.41 16.30L496.41 16.30L496.41 16.30Q496.10 16.28 495.96 16.19L495.96 16.19L495.96 16.19Q495.82 16.10 495.75 16.00L495.75 16.00L495.75 16.00Q495.67 15.89 495.61 15.79L495.61 15.79L495.61 15.79Q495.54 15.68 495.42 15.62L495.42 15.62L495.42 15.62Q495.32 15.58 495.25 15.43L495.25 15.43L495.25 15.43Q495.18 15.27 495.13 15.09L495.13 15.09L495.13 15.09Q495.08 14.90 495.05 14.70L495.05 14.70L495.05 14.70Q495.03 14.50 495.03 14.38ZM508.79 6.69L508.79 6.69L508.79 6.69Q508.23 6.69 507.93 6.38L507.93 6.38L507.93 6.38Q507.63 6.06 507.63 5.61L507.63 5.61L507.63 5.61Q507.63 5.50 507.66 5.35L507.66 5.35L507.66 5.35Q507.70 5.19 507.75 5.08L507.75 5.08L507.75 5.08Q507.93 5.17 508.29 5.20L508.29 5.20L508.29 5.20Q508.65 5.24 509.12 5.24L509.12 5.24L509.12 5.24Q509.84 5.24 510.74 5.17L510.74 5.17L510.74 5.17Q511.64 5.11 512.47 5.04L512.47 5.04L512.47 5.04Q513.30 4.97 513.93 4.91L513.93 4.91L513.93 4.91Q514.56 4.84 514.74 4.84L514.74 4.84L514.74 4.84Q515.26 4.84 515.49 5.23L515.49 5.23L515.49 5.23Q515.72 5.61 515.83 6.26L515.83 6.26L515.83 6.26Q515.47 6.23 515.11 6.21L515.11 6.21L515.11 6.21Q514.75 6.19 514.50 6.19L514.50 6.19L514.50 6.19Q514.05 6.19 513.60 6.22L513.60 6.22L513.60 6.22Q513.14 6.24 512.68 6.30L512.68 6.30L512.68 6.30Q512.48 6.71 512.25 7.26L512.25 7.26L512.25 7.26Q512.01 7.81 511.78 8.41L511.78 8.41L511.78 8.41Q511.55 9.02 511.34 9.61L511.34 9.61L511.34 9.61Q511.13 10.21 510.97 10.68L510.97 10.68L510.97 10.68Q510.66 11.61 510.43 12.39L510.43 12.39L510.43 12.39Q510.20 13.17 510.03 13.85L510.03 13.85L510.03 13.85Q509.85 14.53 509.73 15.15L509.73 15.15L509.73 15.15Q509.60 15.76 509.50 16.35L509.50 16.35L509.50 16.35Q508.56 16.21 507.93 15.18L507.93 15.18L507.93 15.18Q508.05 14.74 508.21 14.23L508.21 14.23L508.21 14.23Q508.37 13.72 508.58 13.07L508.58 13.07L508.58 13.07Q508.80 12.42 509.10 11.59L509.10 11.59L509.10 11.59Q509.39 10.77 509.77 9.72L509.77 9.72L509.77 9.72Q509.91 9.32 510.06 8.90L510.06 8.90L510.06 8.90Q510.22 8.47 510.36 8.05L510.36 8.05L510.36 8.05Q510.51 7.63 510.63 7.24L510.63 7.24L510.63 7.24Q510.75 6.85 510.83 6.52L510.83 6.52L510.83 6.52Q510.24 6.59 509.72 6.64L509.72 6.64L509.72 6.64Q509.19 6.69 508.79 6.69ZM526.71 14.36L526.71 14.36L526.71 14.36Q526.71 13.78 526.90 12.85L526.90 12.85L526.90 12.85Q527.10 11.93 527.42 10.88L527.42 10.88L527.42 10.88Q526.50 10.95 525.57 11.06L525.57 11.06L525.57 11.06Q524.64 11.17 523.95 11.19L523.95 11.19L523.95 11.19Q523.32 12.66 522.95 13.89L522.95 13.89L522.95 13.89Q522.58 15.13 522.37 16.31L522.37 16.31L522.37 16.31Q521.84 16.18 521.49 15.87L521.49 15.87L521.49 15.87Q521.14 15.55 520.84 15.08L520.84 15.08L520.84 15.08Q520.95 14.85 521.10 14.50L521.10 14.50L521.10 14.50Q521.25 14.15 521.45 13.66L521.45 13.66L521.45 13.66Q521.65 13.16 521.91 12.50L521.91 12.50L521.91 12.50Q522.17 11.83 522.51 10.95L522.51 10.95L522.51 10.95Q522.05 10.75 521.89 10.40L521.89 10.40L521.89 10.40Q521.96 10.35 522.21 10.28L522.21 10.28L522.21 10.28Q522.45 10.22 522.82 10.15L522.82 10.15L523.00 9.70L523.00 9.70Q523.29 8.95 523.48 8.43L523.48 8.43L523.48 8.43Q523.67 7.91 523.80 7.41L523.80 7.41L523.80 7.41Q523.94 6.92 524.05 6.31L524.05 6.31L524.05 6.31Q524.17 5.71 524.34 4.79L524.34 4.79L524.34 4.79Q524.93 4.90 525.41 5.31L525.41 5.31L525.41 5.31Q525.90 5.71 526.25 6.29L526.25 6.29L526.25 6.29Q526.12 6.45 525.94 6.79L525.94 6.79L525.94 6.79Q525.76 7.13 525.54 7.59L525.54 7.59L525.54 7.59Q525.32 8.06 525.07 8.64L525.07 8.64L525.07 8.64Q524.82 9.23 524.52 9.87L524.52 9.87L524.52 9.87Q525.39 9.76 526.28 9.66L526.28 9.66L526.28 9.66Q527.17 9.56 527.86 9.52L527.86 9.52L527.86 9.52Q528.11 8.79 528.38 8.10L528.38 8.10L528.38 8.10Q528.65 7.41 528.92 6.83L528.92 6.83L528.92 6.83Q529.19 6.26 529.43 5.82L529.43 5.82L529.43 5.82Q529.68 5.39 529.87 5.18L529.87 5.18L529.87 5.18Q530.01 5.19 530.24 5.29L530.24 5.29L530.24 5.29Q530.47 5.38 530.71 5.50L530.71 5.50L530.71 5.50Q530.95 5.63 531.15 5.78L531.15 5.78L531.15 5.78Q531.34 5.92 531.41 6.05L531.41 6.05L531.41 6.05Q531.16 6.29 530.91 6.66L530.91 6.66L530.91 6.66Q530.66 7.04 530.41 7.53L530.41 7.53L530.41 7.53Q530.17 8.02 529.93 8.60L529.93 8.60L529.93 8.60Q529.69 9.17 529.48 9.79L529.48 9.79L529.48 9.79Q529.76 10.04 529.76 10.42L529.76 10.42L529.76 10.42Q529.76 10.68 529.65 10.91L529.65 10.91L529.65 10.91Q529.52 10.88 529.40 10.87L529.40 10.87L529.40 10.87Q529.27 10.86 529.13 10.85L529.13 10.85L529.13 10.85Q528.89 11.61 528.70 12.35L528.70 12.35L528.70 12.35Q528.50 13.09 528.37 13.76L528.37 13.76L528.37 13.76Q528.23 14.43 528.16 14.99L528.16 14.99L528.16 14.99Q528.08 15.55 528.08 15.93L528.08 15.93L528.08 15.93Q528.08 16.07 528.09 16.16L528.09 16.16L528.09 16.16Q528.09 16.24 528.11 16.30L528.11 16.30L528.11 16.30Q527.80 16.28 527.66 16.19L527.66 16.19L527.66 16.19Q527.52 16.10 527.45 16.00L527.45 16.00L527.45 16.00Q527.38 15.89 527.32 15.79L527.32 15.79L527.32 15.79Q527.27 15.68 527.14 15.62L527.14 15.62L527.14 15.62Q527.04 15.58 526.96 15.43L526.96 15.43L526.96 15.43Q526.88 15.27 526.82 15.08L526.82 15.08L526.82 15.08Q526.76 14.88 526.74 14.69L526.74 14.69L526.74 14.69Q526.71 14.49 526.71 14.36ZM557.16 5.74L557.16 5.74L557.16 5.74Q557.20 5.98 557.22 6.07L557.22 6.07L557.22 6.07Q557.24 6.16 557.24 6.31L557.24 6.31L557.24 6.31Q557.24 6.78 557.04 7.18L557.04 7.18L557.04 7.18Q556.84 7.57 556.49 7.74L556.49 7.74L556.49 7.74Q556.21 7.36 555.80 7.09L555.80 7.09L555.80 7.09Q555.39 6.82 554.91 6.64L554.91 6.64L554.91 6.64Q554.43 6.47 553.91 6.38L553.91 6.38L553.91 6.38Q553.39 6.30 552.90 6.30L552.90 6.30L552.90 6.30Q552.41 6.30 551.98 6.38L551.98 6.38L551.98 6.38Q551.56 6.45 551.23 6.59L551.23 6.59L551.23 6.59Q550.90 6.72 550.71 6.92L550.71 6.92L550.71 6.92Q550.52 7.11 550.52 7.36L550.52 7.36L550.52 7.36Q550.56 7.67 550.90 7.99L550.90 7.99L550.90 7.99Q551.24 8.30 551.73 8.60L551.73 8.60L551.73 8.60Q552.22 8.90 552.81 9.20L552.81 9.20L552.81 9.20Q553.41 9.49 553.98 9.76L553.98 9.76L553.98 9.76Q554.69 10.09 555.21 10.38L555.21 10.38L555.21 10.38Q555.73 10.67 556.07 11.01L556.07 11.01L556.07 11.01Q556.40 11.35 556.57 11.79L556.57 11.79L556.57 11.79Q556.74 12.22 556.74 12.84L556.74 12.84L556.74 12.84Q556.74 13.55 556.50 14.18L556.50 14.18L556.50 14.18Q556.26 14.80 555.81 15.26L555.81 15.26L555.81 15.26Q555.35 15.72 554.71 15.98L554.71 15.98L554.71 15.98Q554.06 16.24 553.27 16.24L553.27 16.24L553.27 16.24Q552.48 16.24 551.57 16.00L551.57 16.00L551.57 16.00Q550.66 15.76 549.87 15.35L549.87 15.35L549.87 15.35Q549.08 14.94 548.55 14.40L548.55 14.40L548.55 14.40Q548.03 13.86 548.03 13.26L548.03 13.26L548.03 13.26Q548.03 12.98 548.19 12.54L548.19 12.54L548.19 12.54Q548.35 12.11 548.77 11.63L548.77 11.63L548.77 11.63Q548.81 12.05 549.23 12.63L549.23 12.63L549.23 12.63Q549.64 13.20 550.47 13.69L550.47 13.69L550.47 13.69Q551.24 14.14 552.05 14.34L552.05 14.34L552.05 14.34Q552.87 14.55 553.59 14.55L553.59 14.55L553.59 14.55Q554.37 14.55 554.86 14.35L554.86 14.35L554.86 14.35Q555.35 14.15 555.63 13.88L555.63 13.88L555.63 13.88Q555.91 13.61 556.02 13.33L556.02 13.33L556.02 13.33Q556.14 13.05 556.15 12.88L556.15 12.88L556.15 12.88Q556.14 12.60 555.89 12.34L555.89 12.34L555.89 12.34Q555.65 12.08 555.23 11.84L555.23 11.84L555.23 11.84Q554.82 11.59 554.27 11.34L554.27 11.34L554.27 11.34Q553.73 11.09 553.14 10.84L553.14 10.84L553.14 10.84Q552.26 10.44 551.62 10.10L551.62 10.10L551.62 10.10Q550.98 9.76 550.57 9.40L550.57 9.40L550.57 9.40Q550.16 9.04 549.97 8.65L549.97 8.65L549.97 8.65Q549.78 8.26 549.78 7.76L549.78 7.76L549.78 7.76Q549.78 6.97 550.26 6.27L550.26 6.27L550.26 6.27Q550.73 5.57 551.63 5.21L551.63 5.21L551.63 5.21Q552.08 5.01 552.59 4.93L552.59 4.93L552.59 4.93Q553.10 4.84 553.59 4.84L553.59 4.84L553.59 4.84Q554.51 4.84 555.39 5.10L555.39 5.10L555.39 5.10Q556.28 5.35 557.16 5.74ZM565.36 12.43L565.36 12.43L565.36 12.43Q565.36 11.45 565.59 10.51L565.59 10.51L565.59 10.51Q565.82 9.56 566.24 8.71L566.24 8.71L566.24 8.71Q566.66 7.87 567.24 7.16L567.24 7.16L567.24 7.16Q567.83 6.45 568.52 5.94L568.52 5.94L568.52 5.94Q569.21 5.42 570.00 5.13L570.00 5.13L570.00 5.13Q570.78 4.84 571.61 4.84L571.61 4.84L571.61 4.84Q572.57 4.84 573.11 5.25L573.11 5.25L573.11 5.25Q573.65 5.66 573.65 6.38L573.65 6.38L573.65 6.38Q573.65 6.66 573.57 6.96L573.57 6.96L573.57 6.96Q573.50 7.25 573.35 7.54L573.35 7.54L573.35 7.54Q573.20 7.83 573.01 8.09L573.01 8.09L573.01 8.09Q572.81 8.36 572.57 8.55L572.57 8.55L572.57 8.55Q572.21 8.50 571.94 8.22L571.94 8.22L571.94 8.22Q571.68 7.95 571.61 7.59L571.61 7.59L571.61 7.59Q572.10 7.18 572.38 6.74L572.38 6.74L572.38 6.74Q572.67 6.30 572.67 5.94L572.67 5.94L572.67 5.94Q572.67 5.32 571.90 5.32L571.90 5.32L571.90 5.32Q571.58 5.32 571.23 5.45L571.23 5.45L571.23 5.45Q570.89 5.59 570.54 5.82L570.54 5.82L570.54 5.82Q570.19 6.06 569.86 6.40L569.86 6.40L569.86 6.40Q569.53 6.73 569.25 7.14L569.25 7.14L569.25 7.14Q567.31 9.94 567.31 12.87L567.31 12.87L567.31 12.87Q567.31 13.90 567.63 14.53L567.63 14.53L567.63 14.53Q567.95 15.16 568.48 15.27L568.48 15.27L568.48 15.27Q569.09 15.13 570.01 14.50L570.01 14.50L570.01 14.50Q570.93 13.87 572.03 12.87L572.03 12.87L572.03 12.87Q572.17 13.01 572.19 13.16L572.19 13.16L572.19 13.16Q571.79 13.69 571.35 14.18L571.35 14.18L571.35 14.18Q570.92 14.67 570.49 15.08L570.49 15.08L570.49 15.08Q570.07 15.48 569.65 15.79L569.65 15.79L569.65 15.79Q569.24 16.10 568.89 16.27L568.89 16.27L568.89 16.27Q567.15 16.24 566.26 15.27L566.26 15.27L566.26 15.27Q565.36 14.31 565.36 12.43ZM580.66 14.38L580.66 14.38L580.66 14.38Q580.66 13.87 580.82 13.07L580.82 13.07L580.82 13.07Q580.99 12.26 581.24 11.33L581.24 11.33L581.24 11.33Q581.50 10.40 581.84 9.43L581.84 9.43L581.84 9.43Q582.18 8.46 582.53 7.60L582.53 7.60L582.53 7.60Q582.88 6.75 583.21 6.10L583.21 6.10L583.21 6.10Q583.55 5.46 583.81 5.18L583.81 5.18L583.81 5.18Q583.95 5.19 584.18 5.29L584.18 5.29L584.18 5.29Q584.42 5.38 584.65 5.50L584.65 5.50L584.65 5.50Q584.89 5.63 585.09 5.78L585.09 5.78L585.09 5.78Q585.28 5.92 585.34 6.05L585.34 6.05L585.34 6.05Q584.93 6.41 584.53 7.15L584.53 7.15L584.53 7.15Q584.14 7.88 583.76 8.82L583.76 8.82L583.76 8.82Q583.39 9.76 583.07 10.80L583.07 10.80L583.07 10.80Q582.75 11.84 582.51 12.82L582.51 12.82L582.51 12.82Q582.27 13.80 582.14 14.64L582.14 14.64L582.14 14.64Q582.01 15.48 582.01 16.00L582.01 16.00L582.01 16.00Q582.01 16.24 582.05 16.30L582.05 16.30L582.05 16.30Q581.74 16.28 581.60 16.19L581.60 16.19L581.60 16.19Q581.46 16.10 581.38 16.00L581.38 16.00L581.38 16.00Q581.31 15.89 581.24 15.79L581.24 15.79L581.24 15.79Q581.18 15.68 581.06 15.62L581.06 15.62L581.06 15.62Q580.96 15.58 580.89 15.43L580.89 15.43L580.89 15.43Q580.82 15.27 580.77 15.09L580.77 15.09L580.77 15.09Q580.72 14.90 580.69 14.70L580.69 14.70L580.69 14.70Q580.66 14.50 580.66 14.38ZM600.78 5.74L600.78 5.74L600.78 5.74Q600.82 5.98 600.84 6.07L600.84 6.07L600.84 6.07Q600.87 6.16 600.87 6.31L600.87 6.31L600.87 6.31Q600.87 6.78 600.66 7.18L600.66 7.18L600.66 7.18Q600.46 7.57 600.11 7.74L600.11 7.74L600.11 7.74Q599.83 7.36 599.42 7.09L599.42 7.09L599.42 7.09Q599.02 6.82 598.53 6.64L598.53 6.64L598.53 6.64Q598.05 6.47 597.53 6.38L597.53 6.38L597.53 6.38Q597.02 6.30 596.53 6.30L596.53 6.30L596.53 6.30Q596.04 6.30 595.61 6.38L595.61 6.38L595.61 6.38Q595.18 6.45 594.85 6.59L594.85 6.59L594.85 6.59Q594.52 6.72 594.33 6.92L594.33 6.92L594.33 6.92Q594.15 7.11 594.15 7.36L594.15 7.36L594.15 7.36Q594.19 7.67 594.52 7.99L594.52 7.99L594.52 7.99Q594.86 8.30 595.35 8.60L595.35 8.60L595.35 8.60Q595.84 8.90 596.43 9.20L596.43 9.20L596.43 9.20Q597.03 9.49 597.60 9.76L597.60 9.76L597.60 9.76Q598.32 10.09 598.84 10.38L598.84 10.38L598.84 10.38Q599.35 10.67 599.69 11.01L599.69 11.01L599.69 11.01Q600.03 11.35 600.19 11.79L600.19 11.79L600.19 11.79Q600.36 12.22 600.36 12.84L600.36 12.84L600.36 12.84Q600.36 13.55 600.12 14.18L600.12 14.18L600.12 14.18Q599.89 14.80 599.43 15.26L599.43 15.26L599.43 15.26Q598.98 15.72 598.33 15.98L598.33 15.98L598.33 15.98Q597.69 16.24 596.89 16.24L596.89 16.24L596.89 16.24Q596.11 16.24 595.20 16.00L595.20 16.00L595.20 16.00Q594.29 15.76 593.49 15.35L593.49 15.35L593.49 15.35Q592.70 14.94 592.18 14.40L592.18 14.40L592.18 14.40Q591.65 13.86 591.65 13.26L591.65 13.26L591.65 13.26Q591.65 12.98 591.81 12.54L591.81 12.54L591.81 12.54Q591.98 12.11 592.40 11.63L592.40 11.63L592.40 11.63Q592.44 12.05 592.85 12.63L592.85 12.63L592.85 12.63Q593.26 13.20 594.09 13.69L594.09 13.69L594.09 13.69Q594.86 14.14 595.68 14.34L595.68 14.34L595.68 14.34Q596.50 14.55 597.21 14.55L597.21 14.55L597.21 14.55Q598.00 14.55 598.49 14.35L598.49 14.35L598.49 14.35Q598.98 14.15 599.26 13.88L599.26 13.88L599.26 13.88Q599.54 13.61 599.65 13.33L599.65 13.33L599.65 13.33Q599.76 13.05 599.77 12.88L599.77 12.88L599.77 12.88Q599.76 12.60 599.51 12.34L599.51 12.34L599.51 12.34Q599.27 12.08 598.86 11.84L598.86 11.84L598.86 11.84Q598.44 11.59 597.90 11.34L597.90 11.34L597.90 11.34Q597.35 11.09 596.76 10.84L596.76 10.84L596.76 10.84Q595.88 10.44 595.24 10.10L595.24 10.10L595.24 10.10Q594.61 9.76 594.19 9.40L594.19 9.40L594.19 9.40Q593.78 9.04 593.59 8.65L593.59 8.65L593.59 8.65Q593.40 8.26 593.40 7.76L593.40 7.76L593.40 7.76Q593.40 6.97 593.88 6.27L593.88 6.27L593.88 6.27Q594.36 5.57 595.25 5.21L595.25 5.21L595.25 5.21Q595.70 5.01 596.21 4.93L596.21 4.93L596.21 4.93Q596.72 4.84 597.21 4.84L597.21 4.84L597.21 4.84Q598.14 4.84 599.02 5.10L599.02 5.10L599.02 5.10Q599.90 5.35 600.78 5.74ZM617.61 5.74L617.61 5.74L617.61 5.74Q617.65 5.98 617.67 6.07L617.67 6.07L617.67 6.07Q617.69 6.16 617.69 6.31L617.69 6.31L617.69 6.31Q617.69 6.78 617.49 7.18L617.49 7.18L617.49 7.18Q617.29 7.57 616.94 7.74L616.94 7.74L616.94 7.74Q616.66 7.36 616.25 7.09L616.25 7.09L616.25 7.09Q615.85 6.82 615.36 6.64L615.36 6.64L615.36 6.64Q614.88 6.47 614.36 6.38L614.36 6.38L614.36 6.38Q613.84 6.30 613.35 6.30L613.35 6.30L613.35 6.30Q612.86 6.30 612.44 6.38L612.44 6.38L612.44 6.38Q612.01 6.45 611.68 6.59L611.68 6.59L611.68 6.59Q611.35 6.72 611.16 6.92L611.16 6.92L611.16 6.92Q610.97 7.11 610.97 7.36L610.97 7.36L610.97 7.36Q611.02 7.67 611.35 7.99L611.35 7.99L611.35 7.99Q611.69 8.30 612.18 8.60L612.18 8.60L612.18 8.60Q612.67 8.90 613.26 9.20L613.26 9.20L613.26 9.20Q613.86 9.49 614.43 9.76L614.43 9.76L614.43 9.76Q615.15 10.09 615.66 10.38L615.66 10.38L615.66 10.38Q616.18 10.67 616.52 11.01L616.52 11.01L616.52 11.01Q616.85 11.35 617.02 11.79L617.02 11.79L617.02 11.79Q617.19 12.22 617.19 12.84L617.19 12.84L617.19 12.84Q617.19 13.55 616.95 14.18L616.95 14.18L616.95 14.18Q616.71 14.80 616.26 15.26L616.26 15.26L616.26 15.26Q615.80 15.72 615.16 15.98L615.16 15.98L615.16 15.98Q614.52 16.24 613.72 16.24L613.72 16.24L613.72 16.24Q612.93 16.24 612.02 16.00L612.02 16.00L612.02 16.00Q611.11 15.76 610.32 15.35L610.32 15.35L610.32 15.35Q609.53 14.94 609.01 14.40L609.01 14.40L609.01 14.40Q608.48 13.86 608.48 13.26L608.48 13.26L608.48 13.26Q608.48 12.98 608.64 12.54L608.64 12.54L608.64 12.54Q608.80 12.11 609.22 11.63L609.22 11.63L609.22 11.63Q609.27 12.05 609.68 12.63L609.68 12.63L609.68 12.63Q610.09 13.20 610.92 13.69L610.92 13.69L610.92 13.69Q611.69 14.14 612.51 14.34L612.51 14.34L612.51 14.34Q613.33 14.55 614.04 14.55L614.04 14.55L614.04 14.55Q614.82 14.55 615.31 14.35L615.31 14.35L615.31 14.35Q615.80 14.15 616.08 13.88L616.08 13.88L616.08 13.88Q616.36 13.61 616.48 13.33L616.48 13.33L616.48 13.33Q616.59 13.05 616.60 12.88L616.60 12.88L616.60 12.88Q616.59 12.60 616.34 12.34L616.34 12.34L616.34 12.34Q616.10 12.08 615.68 11.84L615.68 11.84L615.68 11.84Q615.27 11.59 614.73 11.34L614.73 11.34L614.73 11.34Q614.18 11.09 613.59 10.84L613.59 10.84L613.59 10.84Q612.71 10.44 612.07 10.10L612.07 10.10L612.07 10.10Q611.44 9.76 611.02 9.40L611.02 9.40L611.02 9.40Q610.61 9.04 610.42 8.65L610.42 8.65L610.42 8.65Q610.23 8.26 610.23 7.76L610.23 7.76L610.23 7.76Q610.23 6.97 610.71 6.27L610.71 6.27L610.71 6.27Q611.18 5.57 612.08 5.21L612.08 5.21L612.08 5.21Q612.53 5.01 613.04 4.93L613.04 4.93L613.04 4.93Q613.55 4.84 614.04 4.84L614.04 4.84L614.04 4.84Q614.96 4.84 615.85 5.10L615.85 5.10L615.85 5.10Q616.73 5.35 617.61 5.74ZM631.76 4.98L631.76 4.98L631.76 4.98Q632.03 5.10 632.31 5.27L632.31 5.27L632.31 5.27Q632.59 5.45 632.83 5.63L632.83 5.63L632.83 5.63Q633.07 5.81 633.23 5.98L633.23 5.98L633.23 5.98Q633.39 6.16 633.40 6.27L633.40 6.27L633.40 6.27Q633.16 6.22 632.93 6.20L632.93 6.20L632.93 6.20Q632.69 6.17 632.49 6.17L632.49 6.17L632.49 6.17Q631.86 6.17 631.24 6.48L631.24 6.48L631.24 6.48Q630.62 6.79 630.06 7.32L630.06 7.32L630.06 7.32Q629.50 7.85 629.02 8.57L629.02 8.57L629.02 8.57Q628.54 9.28 628.20 10.09L628.20 10.09L628.20 10.09Q627.86 10.91 627.66 11.77L627.66 11.77L627.66 11.77Q627.47 12.64 627.47 13.48L627.47 13.48L627.47 13.48Q627.47 14.57 627.83 15.11L627.83 15.11L627.83 15.11Q628.19 15.64 628.89 15.64L628.89 15.64L628.89 15.64Q629.23 15.64 629.62 15.51L629.62 15.51L629.62 15.51Q630.01 15.37 630.42 15.13L630.42 15.13L630.42 15.13Q630.83 14.90 631.22 14.56L631.22 14.56L631.22 14.56Q631.61 14.22 631.95 13.82L631.95 13.82L631.95 13.82Q632.44 13.23 632.83 12.48L632.83 12.48L632.83 12.48Q633.22 11.73 633.49 10.89L633.49 10.89L633.49 10.89Q633.77 10.05 633.91 9.16L633.91 9.16L633.91 9.16Q634.06 8.27 634.06 7.42L634.06 7.42L634.06 7.42Q634.06 7.08 634.05 6.85L634.05 6.85L634.05 6.85Q634.03 6.62 634.01 6.46L634.01 6.46L634.01 6.46Q633.99 6.30 633.98 6.20L633.98 6.20L633.98 6.20Q633.96 6.10 633.95 6.03L633.95 6.03L633.95 6.03Q634.12 6.12 634.32 6.24L634.32 6.24L634.32 6.24Q634.52 6.36 634.70 6.59L634.70 6.59L634.70 6.59Q634.87 6.82 634.99 7.20L634.99 7.20L634.99 7.20Q635.11 7.57 635.11 8.18L635.11 8.18L635.11 8.18Q635.11 9.16 634.88 10.10L634.88 10.10L634.88 10.10Q634.65 11.05 634.23 11.90L634.23 11.90L634.23 11.90Q633.82 12.75 633.26 13.50L633.26 13.50L633.26 13.50Q632.70 14.24 632.06 14.80L632.06 14.80L632.06 14.80Q631.22 15.54 630.27 15.95L630.27 15.95L630.27 15.95Q629.31 16.35 628.43 16.35L628.43 16.35L628.43 16.35Q627.14 16.35 626.46 15.53L626.46 15.53L626.46 15.53Q625.79 14.71 625.79 13.12L625.79 13.12L625.79 13.12Q625.79 12.26 625.97 11.31L625.97 11.31L625.97 11.31Q626.16 10.36 626.51 9.44L626.51 9.44L626.51 9.44Q626.85 8.51 627.33 7.68L627.33 7.68L627.33 7.68Q627.80 6.85 628.37 6.21L628.37 6.21L628.37 6.21Q628.94 5.57 629.59 5.19L629.59 5.19L629.59 5.19Q630.24 4.82 630.92 4.82L630.92 4.82L630.92 4.82Q631.15 4.82 631.34 4.85L631.34 4.85L631.34 4.85Q631.54 4.89 631.76 4.98ZM651.95 7.46L651.95 7.46L651.95 7.46Q651.95 8.13 651.65 8.73L651.65 8.73L651.65 8.73Q651.35 9.32 650.82 9.79L650.82 9.79L650.82 9.79Q650.29 10.26 649.57 10.58L649.57 10.58L649.57 10.58Q648.86 10.91 648.02 11.02L648.02 11.02L648.02 11.02Q648.23 11.65 648.53 12.31L648.53 12.31L648.53 12.31Q648.83 12.98 649.18 13.59L649.18 13.59L649.18 13.59Q649.53 14.21 649.91 14.73L649.91 14.73L649.91 14.73Q650.29 15.25 650.65 15.58L650.65 15.58L650.65 15.58Q650.58 15.72 650.45 15.86L650.45 15.86L650.45 15.86Q650.31 16.00 650.14 16.12L650.14 16.12L650.14 16.12Q649.96 16.24 649.77 16.32L649.77 16.32L649.77 16.32Q649.59 16.39 649.42 16.39L649.42 16.39L649.42 16.39Q649.11 16.39 648.83 16.10L648.83 16.10L648.83 16.10Q648.55 15.81 648.26 15.17L648.26 15.17L648.26 15.17Q647.98 14.53 647.66 13.52L647.66 13.52L647.66 13.52Q647.35 12.50 646.97 11.07L646.97 11.07L646.97 11.07Q646.81 11.07 646.66 11.07L646.66 11.07L646.66 11.07Q646.51 11.07 646.42 11.05L646.42 11.05L646.42 11.05Q646.32 10.99 646.21 10.85L646.21 10.85L646.21 10.85Q645.83 11.66 645.54 12.38L645.54 12.38L645.54 12.38Q645.25 13.09 645.01 13.76L645.01 13.76L645.01 13.76Q644.78 14.42 644.61 15.04L644.61 15.04L644.61 15.04Q644.43 15.67 644.31 16.31L644.31 16.31L644.31 16.31Q643.83 16.20 643.48 15.90L643.48 15.90L643.48 15.90Q643.13 15.61 642.82 15.08L642.82 15.08L642.82 15.08Q642.88 14.95 642.94 14.83L642.94 14.83L642.94 14.83Q643.01 14.71 643.10 14.50L643.10 14.50L643.10 14.50Q643.20 14.28 643.35 13.94L643.35 13.94L643.35 13.94Q643.50 13.61 643.74 13.05L643.74 13.05L643.74 13.05Q643.99 12.49 644.33 11.68L644.33 11.68L644.33 11.68Q644.67 10.86 645.16 9.70L645.16 9.70L645.16 9.70Q645.39 9.18 645.55 8.79L645.55 8.79L645.55 8.79Q645.71 8.40 645.83 8.04L645.83 8.04L645.83 8.04Q645.96 7.69 646.06 7.33L646.06 7.33L646.06 7.33Q646.17 6.97 646.28 6.51L646.28 6.51L646.28 6.51Q645.64 6.73 645.08 7.01L645.08 7.01L645.08 7.01Q644.53 7.28 644.17 7.59L644.17 7.59L644.17 7.59Q644.04 7.50 643.91 7.34L643.91 7.34L643.91 7.34Q643.78 7.17 643.66 6.96L643.66 6.96L643.66 6.96Q643.55 6.76 643.47 6.55L643.47 6.55L643.47 6.55Q643.38 6.34 643.37 6.17L643.37 6.17L643.37 6.17Q643.79 5.89 644.40 5.66L644.40 5.66L644.40 5.66Q645.01 5.42 645.69 5.24L645.69 5.24L645.69 5.24Q646.38 5.07 647.09 4.97L647.09 4.97L647.09 4.97Q647.81 4.87 648.42 4.87L648.42 4.87L648.42 4.87Q650.10 4.87 651.03 5.56L651.03 5.56L651.03 5.56Q651.95 6.26 651.95 7.46ZM648.37 6.02L648.54 6.29L648.54 6.29Q648.44 6.41 648.23 6.79L648.23 6.79L648.23 6.79Q648.02 7.17 647.74 7.69L647.74 7.69L647.74 7.69Q647.47 8.22 647.17 8.83L647.17 8.83L647.17 8.83Q646.87 9.45 646.59 10.05L646.59 10.05L646.59 10.05Q647.64 10.05 648.52 9.86L648.52 9.86L648.52 9.86Q649.40 9.66 650.05 9.30L650.05 9.30L650.05 9.30Q650.69 8.95 651.05 8.46L651.05 8.46L651.05 8.46Q651.41 7.98 651.41 7.39L651.41 7.39L651.41 7.39Q651.41 6.69 650.90 6.32L650.90 6.32L650.90 6.32Q650.40 5.95 649.35 5.95L649.35 5.95L649.35 5.95Q649.11 5.95 648.87 5.97L648.87 5.97L648.87 5.97Q648.63 5.99 648.37 6.02L648.37 6.02ZM659.69 12.54L659.69 12.54L659.69 12.54Q659.69 12.17 659.90 11.45L659.90 11.45L659.90 11.45Q660.10 10.72 660.42 9.85L660.42 9.85L660.42 9.85Q660.74 8.97 661.15 8.04L661.15 8.04L661.15 8.04Q661.56 7.11 661.97 6.30L661.97 6.30L661.97 6.30Q662.38 5.49 662.76 4.89L662.76 4.89L662.76 4.89Q663.14 4.30 663.42 4.10L663.42 4.10L663.42 4.10Q663.64 4.14 663.90 4.30L663.90 4.30L663.90 4.30Q664.16 4.47 664.38 4.67L664.38 4.67L664.38 4.67Q664.61 4.87 664.78 5.10L664.78 5.10L664.78 5.10Q664.94 5.32 664.97 5.49L664.97 5.49L664.97 5.49Q664.26 6.08 663.56 6.95L663.56 6.95L663.56 6.95Q662.86 7.83 662.26 8.89L662.26 8.89L662.26 8.89Q661.67 9.95 661.22 11.16L661.22 11.16L661.22 11.16Q660.77 12.38 660.55 13.64L660.55 13.64L660.55 13.64Q660.38 13.59 660.22 13.53L660.22 13.53L660.22 13.53Q660.06 13.47 659.95 13.36L659.95 13.36L659.95 13.36Q659.83 13.24 659.76 13.05L659.76 13.05L659.76 13.05Q659.69 12.85 659.69 12.54ZM659.39 16.25L659.39 16.25L659.39 16.25Q659.22 16.25 659.06 16.18L659.06 16.18L659.06 16.18Q658.91 16.10 658.79 16.00L658.79 16.00L658.79 16.00Q658.67 15.89 658.60 15.77L658.60 15.77L658.60 15.77Q658.53 15.65 658.53 15.58L658.53 15.58L658.53 15.58Q658.53 15.41 658.57 15.15L658.57 15.15L658.57 15.15Q658.62 14.88 658.70 14.64L658.70 14.64L658.70 14.64Q658.78 14.39 658.91 14.22L658.91 14.22L658.91 14.22Q659.04 14.04 659.19 14.04L659.19 14.04L659.19 14.04Q659.58 14.04 659.98 14.31L659.98 14.31L659.98 14.31Q660.38 14.59 660.58 14.92L660.58 14.92L660.58 14.92Q660.41 15.11 660.28 15.34L660.28 15.34L660.28 15.34Q660.16 15.57 660.03 15.77L660.03 15.77L660.03 15.77Q659.90 15.97 659.75 16.11L659.75 16.11L659.75 16.11Q659.60 16.25 659.39 16.25ZM672.32 8.08L672.32 8.08L672.32 8.08Q672.24 8.01 672.17 7.85L672.17 7.85L672.17 7.85Q672.10 7.70 672.10 7.55L672.10 7.55L672.10 7.55Q672.27 7.06 672.41 6.42L672.41 6.42L672.41 6.42Q672.56 5.78 672.56 5.00L672.56 5.00L672.56 5.00Q672.56 4.65 672.52 4.28L672.52 4.28L672.52 4.28Q672.49 3.92 672.39 3.51L672.39 3.51L672.39 3.51Q673.06 3.56 673.62 3.80L673.62 3.80L673.62 3.80Q674.17 4.05 674.35 4.40L674.35 4.40L674.35 4.40Q674.11 5.67 673.62 6.61L673.62 6.61L673.62 6.61Q673.13 7.55 672.32 8.08ZM674.84 8.08L674.84 8.08L674.84 8.08Q674.76 8.01 674.69 7.85L674.69 7.85L674.69 7.85Q674.62 7.70 674.62 7.55L674.62 7.55L674.62 7.55Q674.79 7.06 674.93 6.42L674.93 6.42L674.93 6.42Q675.08 5.78 675.08 5.00L675.08 5.00L675.08 5.00Q675.08 4.65 675.04 4.28L675.04 4.28L675.04 4.28Q675.01 3.92 674.91 3.51L674.91 3.51L674.91 3.51Q675.58 3.56 676.14 3.80L676.14 3.80L676.14 3.80Q676.69 4.05 676.87 4.40L676.87 4.40L676.87 4.40Q676.63 5.67 676.14 6.61L676.14 6.61L676.14 6.61Q675.65 7.55 674.84 8.08Z"></path></g></svg>