<svg data-v-fde0c5aa="" xmlns="http://www.w3.org/2000/svg" viewBox="0 0 300 300" class="font"><!----><defs data-v-fde0c5aa=""><!----></defs><rect data-v-fde0c5aa="" fill="transparent" x="0" y="0" width="300px" height="300px" class="logo-background-square"></rect><defs data-v-fde0c5aa=""><linearGradient data-v-fde0c5aa="" gradientTransform="rotate(25)" id="a204206d-329b-457e-af9f-5beaf6109dc5" x1="0%" y1="0%" x2="100%" y2="0%"><stop data-v-fde0c5aa="" offset="0%" stop-color="#006678" stop-opacity="1"></stop><stop data-v-fde0c5aa="" offset="100%" stop-color="#4FA8FF" stop-opacity="1"></stop></linearGradient></defs><g data-v-fde0c5aa="" id="8a5d9385-6358-4c00-bd88-8b24f138c88f" fill="url(#a204206d-329b-457e-af9f-5beaf6109dc5)" transform="matrix(5.09731234424903,0,0,5.09731234424903,36.6357737191133,108.2530116089299)"><path d="M3.44 13.23L3.44 13.23Q2.53 13.23 1.91 12.92L1.91 12.92L1.91 12.92Q1.29 12.61 0.97 12.22L0.97 12.22L0.97 12.22Q0.66 11.83 0.66 11.59L0.66 11.59L0.66 11.59Q0.66 11.47 0.76 11.39L0.76 11.39L0.76 11.39Q0.85 11.31 0.97 11.31L0.97 11.31L1.18 11.31L1.18 11.31Q1.27 11.31 1.34 11.35L1.34 11.35L1.34 11.35Q1.40 11.38 1.48 11.49L1.48 11.49L1.48 11.49Q1.79 11.93 2.23 12.17L2.23 12.17L2.23 12.17Q2.67 12.42 3.44 12.42L3.44 12.42L3.44 12.42Q4.31 12.42 4.84 12.09L4.84 12.09L4.84 12.09Q5.38 11.76 5.38 11.14L5.38 11.14L5.38 11.14Q5.38 10.77 5.16 10.53L5.16 10.53L5.16 10.53Q4.94 10.29 4.46 10.12L4.46 10.12L4.46 10.12Q3.98 9.94 3.02 9.72L3.02 9.72L3.02 9.72Q1.78 9.44 1.32 8.95L1.32 8.95L1.32 8.95Q0.87 8.46 0.87 7.70L0.87 7.70L0.87 7.70Q0.87 7.18 1.16 6.72L1.16 6.72L1.16 6.72Q1.44 6.26 2.01 5.96L2.01 5.96L2.01 5.96Q2.58 5.67 3.37 5.67L3.37 5.67L3.37 5.67Q4.21 5.67 4.79 5.96L4.79 5.96L4.79 5.96Q5.38 6.24 5.66 6.62L5.66 6.62L5.66 6.62Q5.95 7 5.95 7.24L5.95 7.24L5.95 7.24Q5.95 7.36 5.86 7.44L5.86 7.44L5.86 7.44Q5.77 7.52 5.64 7.52L5.64 7.52L5.43 7.52L5.43 7.52Q5.24 7.52 5.12 7.34L5.12 7.34L5.12 7.34Q4.84 6.92 4.49 6.70L4.49 6.70L4.49 6.70Q4.13 6.48 3.37 6.48L3.37 6.48L3.37 6.48Q2.56 6.48 2.14 6.82L2.14 6.82L2.14 6.82Q1.72 7.15 1.72 7.70L1.72 7.70L1.72 7.70Q1.72 8.04 1.89 8.26L1.89 8.26L1.89 8.26Q2.06 8.48 2.52 8.67L2.52 8.67L2.52 8.67Q2.98 8.86 3.86 9.06L3.86 9.06L3.86 9.06Q5.17 9.35 5.70 9.84L5.70 9.84L5.70 9.84Q6.23 10.33 6.23 11.14L6.23 11.14L6.23 11.14Q6.23 11.72 5.91 12.19L5.91 12.19L5.91 12.19Q5.59 12.67 4.96 12.95L4.96 12.95L4.96 12.95Q4.33 13.23 3.44 13.23L3.44 13.23ZM10.78 13.23L10.78 13.23Q9.32 13.23 8.53 12.38L8.53 12.38L8.53 12.38Q7.73 11.54 7.69 10.01L7.69 10.01L7.67 9.45L7.69 8.89L7.69 8.89Q7.73 7.36 8.53 6.52L8.53 6.52L8.53 6.52Q9.32 5.67 10.78 5.67L10.78 5.67L10.78 5.67Q11.70 5.67 12.36 6.00L12.36 6.00L12.36 6.00Q13.01 6.33 13.33 6.84L13.33 6.84L13.33 6.84Q13.65 7.35 13.68 7.90L13.68 7.90L13.68 7.90Q13.69 8.02 13.59 8.11L13.59 8.11L13.59 8.11Q13.50 8.20 13.37 8.20L13.37 8.20L13.17 8.20L13.17 8.20Q13.03 8.20 12.97 8.14L12.97 8.14L12.97 8.14Q12.91 8.08 12.84 7.91L12.84 7.91L12.84 7.91Q12.56 7.14 12.05 6.81L12.05 6.81L12.05 6.81Q11.55 6.48 10.78 6.48L10.78 6.48L10.78 6.48Q9.77 6.48 9.18 7.09L9.18 7.09L9.18 7.09Q8.58 7.70 8.54 8.96L8.54 8.96L8.53 9.45L8.54 9.94L8.54 9.94Q8.58 11.20 9.18 11.81L9.18 11.81L9.18 11.81Q9.77 12.42 10.78 12.42L10.78 12.42L10.78 12.42Q11.55 12.42 12.05 12.09L12.05 12.09L12.05 12.09Q12.56 11.76 12.84 10.99L12.84 10.99L12.84 10.99Q12.91 10.82 12.97 10.76L12.97 10.76L12.97 10.76Q13.03 10.70 13.17 10.70L13.17 10.70L13.37 10.70L13.37 10.70Q13.50 10.70 13.59 10.79L13.59 10.79L13.59 10.79Q13.69 10.88 13.68 11.00L13.68 11.00L13.68 11.00Q13.65 11.55 13.33 12.06L13.33 12.06L13.33 12.06Q13.01 12.57 12.36 12.90L12.36 12.90L12.36 12.90Q11.70 13.23 10.78 13.23L10.78 13.23ZM15.68 4.31L15.68 4.31Q15.54 4.31 15.46 4.23L15.46 4.23L15.46 4.23Q15.37 4.14 15.37 4.00L15.37 4.00L15.37 3.47L15.37 3.47Q15.37 3.33 15.46 3.24L15.46 3.24L15.46 3.24Q15.54 3.15 15.68 3.15L15.68 3.15L16.21 3.15L16.21 3.15Q16.35 3.15 16.44 3.24L16.44 3.24L16.44 3.24Q16.53 3.33 16.53 3.47L16.53 3.47L16.53 4.00L16.53 4.00Q16.53 4.14 16.44 4.23L16.44 4.23L16.44 4.23Q16.35 4.31 16.21 4.31L16.21 4.31L15.68 4.31ZM15.83 13.09L15.83 13.09Q15.69 13.09 15.61 13.01L15.61 13.01L15.61 13.01Q15.53 12.92 15.53 12.78L15.53 12.78L15.53 6.12L15.53 6.12Q15.53 5.98 15.61 5.89L15.61 5.89L15.61 5.89Q15.69 5.81 15.83 5.81L15.83 5.81L16.07 5.81L16.07 5.81Q16.21 5.81 16.30 5.89L16.30 5.89L16.30 5.89Q16.38 5.98 16.38 6.12L16.38 6.12L16.38 12.78L16.38 12.78Q16.38 12.92 16.30 13.01L16.30 13.01L16.30 13.01Q16.21 13.09 16.07 13.09L16.07 13.09L15.83 13.09ZM20.96 13.23L20.96 13.23Q20.05 13.23 19.43 12.92L19.43 12.92L19.43 12.92Q18.80 12.61 18.49 12.22L18.49 12.22L18.49 12.22Q18.17 11.83 18.17 11.59L18.17 11.59L18.17 11.59Q18.17 11.47 18.27 11.39L18.27 11.39L18.27 11.39Q18.37 11.31 18.48 11.31L18.48 11.31L18.69 11.31L18.69 11.31Q18.79 11.31 18.85 11.35L18.85 11.35L18.85 11.35Q18.91 11.38 19.00 11.49L19.00 11.49L19.00 11.49Q19.31 11.93 19.75 12.17L19.75 12.17L19.75 12.17Q20.19 12.42 20.96 12.42L20.96 12.42L20.96 12.42Q21.83 12.42 22.36 12.09L22.36 12.09L22.36 12.09Q22.89 11.76 22.89 11.14L22.89 11.14L22.89 11.14Q22.89 10.77 22.67 10.53L22.67 10.53L22.67 10.53Q22.46 10.29 21.97 10.12L21.97 10.12L21.97 10.12Q21.49 9.94 20.54 9.72L20.54 9.72L20.54 9.72Q19.29 9.44 18.84 8.95L18.84 8.95L18.84 8.95Q18.38 8.46 18.38 7.70L18.38 7.70L18.38 7.70Q18.38 7.18 18.67 6.72L18.67 6.72L18.67 6.72Q18.96 6.26 19.52 5.96L19.52 5.96L19.52 5.96Q20.09 5.67 20.89 5.67L20.89 5.67L20.89 5.67Q21.73 5.67 22.31 5.96L22.31 5.96L22.31 5.96Q22.89 6.24 23.18 6.62L23.18 6.62L23.18 6.62Q23.46 7 23.46 7.24L23.46 7.24L23.46 7.24Q23.46 7.36 23.37 7.44L23.37 7.44L23.37 7.44Q23.28 7.52 23.16 7.52L23.16 7.52L22.95 7.52L22.95 7.52Q22.75 7.52 22.64 7.34L22.64 7.34L22.64 7.34Q22.36 6.92 22.00 6.70L22.00 6.70L22.00 6.70Q21.64 6.48 20.89 6.48L20.89 6.48L20.89 6.48Q20.08 6.48 19.66 6.82L19.66 6.82L19.66 6.82Q19.24 7.15 19.24 7.70L19.24 7.70L19.24 7.70Q19.24 8.04 19.40 8.26L19.40 8.26L19.40 8.26Q19.57 8.48 20.03 8.67L20.03 8.67L20.03 8.67Q20.50 8.86 21.38 9.06L21.38 9.06L21.38 9.06Q22.68 9.35 23.21 9.84L23.21 9.84L23.21 9.84Q23.74 10.33 23.74 11.14L23.74 11.14L23.74 11.14Q23.74 11.72 23.42 12.19L23.42 12.19L23.42 12.19Q23.10 12.67 22.47 12.95L22.47 12.95L22.47 12.95Q21.84 13.23 20.96 13.23L20.96 13.23ZM27.85 13.23L27.85 13.23Q26.94 13.23 26.31 12.92L26.31 12.92L26.31 12.92Q25.69 12.61 25.38 12.22L25.38 12.22L25.38 12.22Q25.06 11.83 25.06 11.59L25.06 11.59L25.06 11.59Q25.06 11.47 25.16 11.39L25.16 11.39L25.16 11.39Q25.26 11.31 25.37 11.31L25.37 11.31L25.58 11.31L25.58 11.31Q25.68 11.31 25.74 11.35L25.74 11.35L25.74 11.35Q25.80 11.38 25.89 11.49L25.89 11.49L25.89 11.49Q26.19 11.93 26.64 12.17L26.64 12.17L26.64 12.17Q27.08 12.42 27.85 12.42L27.85 12.42L27.85 12.42Q28.71 12.42 29.25 12.09L29.25 12.09L29.25 12.09Q29.78 11.76 29.78 11.14L29.78 11.14L29.78 11.14Q29.78 10.77 29.56 10.53L29.56 10.53L29.56 10.53Q29.34 10.29 28.86 10.12L28.86 10.12L28.86 10.12Q28.38 9.94 27.43 9.72L27.43 9.72L27.43 9.72Q26.18 9.44 25.73 8.95L25.73 8.95L25.73 8.95Q25.27 8.46 25.27 7.70L25.27 7.70L25.27 7.70Q25.27 7.18 25.56 6.72L25.56 6.72L25.56 6.72Q25.84 6.26 26.41 5.96L26.41 5.96L26.41 5.96Q26.98 5.67 27.78 5.67L27.78 5.67L27.78 5.67Q28.62 5.67 29.20 5.96L29.20 5.96L29.20 5.96Q29.78 6.24 30.07 6.62L30.07 6.62L30.07 6.62Q30.35 7 30.35 7.24L30.35 7.24L30.35 7.24Q30.35 7.36 30.26 7.44L30.26 7.44L30.26 7.44Q30.17 7.52 30.04 7.52L30.04 7.52L29.83 7.52L29.83 7.52Q29.64 7.52 29.53 7.34L29.53 7.34L29.53 7.34Q29.25 6.92 28.89 6.70L28.89 6.70L28.89 6.70Q28.53 6.48 27.78 6.48L27.78 6.48L27.78 6.48Q26.96 6.48 26.54 6.82L26.54 6.82L26.54 6.82Q26.12 7.15 26.12 7.70L26.12 7.70L26.12 7.70Q26.12 8.04 26.29 8.26L26.29 8.26L26.29 8.26Q26.46 8.48 26.92 8.67L26.92 8.67L26.92 8.67Q27.38 8.86 28.27 9.06L28.27 9.06L28.27 9.06Q29.57 9.35 30.10 9.84L30.10 9.84L30.10 9.84Q30.63 10.33 30.63 11.14L30.63 11.14L30.63 11.14Q30.63 11.72 30.31 12.19L30.31 12.19L30.31 12.19Q29.99 12.67 29.36 12.95L29.36 12.95L29.36 12.95Q28.73 13.23 27.85 13.23L27.85 13.23ZM35.20 13.23L35.20 13.23Q33.74 13.23 32.94 12.34L32.94 12.34L32.94 12.34Q32.13 11.45 32.09 10.04L32.09 10.04L32.07 9.45L32.09 8.86L32.09 8.86Q32.13 7.45 32.94 6.56L32.94 6.56L32.94 6.56Q33.74 5.67 35.20 5.67L35.20 5.67L35.20 5.67Q36.65 5.67 37.46 6.56L37.46 6.56L37.46 6.56Q38.26 7.45 38.30 8.86L38.30 8.86L38.30 8.86Q38.32 9.00 38.32 9.45L38.32 9.45L38.32 9.45Q38.32 9.90 38.30 10.04L38.30 10.04L38.30 10.04Q38.26 11.45 37.46 12.34L37.46 12.34L37.46 12.34Q36.65 13.23 35.20 13.23L35.20 13.23ZM35.20 12.42L35.20 12.42Q36.19 12.42 36.80 11.78L36.80 11.78L36.80 11.78Q37.41 11.14 37.45 9.97L37.45 9.97L37.45 9.97Q37.46 9.83 37.46 9.45L37.46 9.45L37.46 9.45Q37.46 9.07 37.45 8.93L37.45 8.93L37.45 8.93Q37.41 7.76 36.80 7.12L36.80 7.12L36.80 7.12Q36.19 6.48 35.20 6.48L35.20 6.48L35.20 6.48Q34.20 6.48 33.59 7.12L33.59 7.12L33.59 7.12Q32.98 7.76 32.94 8.93L32.94 8.93L32.93 9.45L32.94 9.97L32.94 9.97Q32.98 11.14 33.59 11.78L33.59 11.78L33.59 11.78Q34.20 12.42 35.20 12.42L35.20 12.42ZM40.54 13.09L40.54 13.09Q40.40 13.09 40.32 13.01L40.32 13.01L40.32 13.01Q40.24 12.92 40.24 12.78L40.24 12.78L40.24 6.13L40.24 6.13Q40.24 5.99 40.32 5.90L40.32 5.90L40.32 5.90Q40.40 5.81 40.54 5.81L40.54 5.81L40.77 5.81L40.77 5.81Q40.91 5.81 41.00 5.90L41.00 5.90L41.00 5.90Q41.09 5.99 41.09 6.13L41.09 6.13L41.09 6.78L41.09 6.78Q41.59 5.81 42.99 5.81L42.99 5.81L43.51 5.81L43.51 5.81Q43.65 5.81 43.74 5.89L43.74 5.89L43.74 5.89Q43.82 5.98 43.82 6.12L43.82 6.12L43.82 6.31L43.82 6.31Q43.82 6.45 43.74 6.54L43.74 6.54L43.74 6.54Q43.65 6.62 43.51 6.62L43.51 6.62L42.91 6.62L42.91 6.62Q42.07 6.62 41.58 7.11L41.58 7.11L41.58 7.11Q41.09 7.60 41.09 8.44L41.09 8.44L41.09 12.78L41.09 12.78Q41.09 12.92 41.00 13.01L41.00 13.01L41.00 13.01Q40.91 13.09 40.77 13.09L40.77 13.09L40.54 13.09Z"></path></g><!----><!----></svg>